<svg xmlns="http://www.w3.org/2000/svg" version="1.1" xmlns:xlink="http://www.w3.org/1999/xlink" xmlns:svgjs="http://svgjs.dev/svgjs" viewBox="0 0 800 800"><defs><linearGradient x1="50%" y1="0%" x2="50%" y2="100%" id="uundulate-grad"><stop stop-color="hsl(30, 100%, 50%)" stop-opacity="1" offset="45%"></stop><stop stop-color="hsl(30, 100%, 70%)" stop-opacity="1" offset="100%"></stop></linearGradient></defs><g stroke-width="2" stroke="url(#uundulate-grad)" fill="none"><path d="M759.6679026266856 276.7312957571396C784.7014556246418 436.1136508679266 770.6123992602988 771.709176801015 671.9783282133042 813.3817158268957C573.3442571663094 855.0542548527765 417.83339035795257 640.4351241424193 286.22436160111 476.75948308136867C154.6153328442674 313.0838420203179 -15.076866532458325 116.99136202265487 40.254990180459515 27.73863873385295C95.58684689337736 -61.514084554948965 401.93958373015107 -3.527058918066132 551.8172738231151 48.346411295118685C701.6949639160792 100.2198815083035 734.6343496287298 117.34894064635262 759.6679026266856 276.7312957571396C784.7014556246418 436.1136508679266 770.6123992602988 771.709176801015 671.9783282133042 813.3817158268957 "></path><path d="M740.7380403199563 283.21913835812074C764.4540378969673 434.2129484630768 751.1065108149585 752.1455519786341 657.6637066651738 791.6247994768371C564.2209025153892 831.1040469750401 416.8948181706302 627.7806599862804 292.21258040098985 472.7195263494955C167.53034263134953 317.65839271271057 6.769311642872481 131.88656955702993 59.18896537089995 47.331358020270216C111.60861909892742 -37.22385351648944 401.83752768113413 17.711223402662654 543.8269182955212 66.85451097304832C685.8163089099081 115.99779854343393 717.0220427429455 132.22532825316466 740.7380403199563 283.21913835812074C764.4540378969673 434.2129484630768 751.1065108149585 752.1455519786341 657.6637066651738 791.6247994768371 "></path><path d="M721.8080864604927 289.7069809591019C744.2065286165586 432.3122460582272 731.6005308168835 732.5819271562536 643.3489935643091 769.8678831267785C555.0974563117347 807.1538390973033 415.9561544305734 615.1261958301417 298.20070764813534 468.6795696176225C180.44526086569732 322.23294340510347 28.615398265469025 146.78177709140505 78.12284900860601 66.92407730668754C127.63029975174305 -12.933622478029974 401.7353800793828 38.949505723391496 535.8364712151927 85.3626106509779C669.9375623510026 131.77571557856436 699.4096443044267 147.1017158599767 721.8080864604927 289.7069809591019C744.2065286165586 432.3122460582272 731.6005308168835 732.5819271562536 643.3489935643091 769.8678831267785 "></path><path d="M702.8782241537634 296.1947930425049C723.9591108888842 430.41151313579917 712.0946423715429 713.0182718162946 629.0343720161788 748.1109362591415C545.9741016608148 783.2036007019888 415.0175822432511 602.4717011564247 304.1889264480153 464.63958236817143C193.3602706527795 326.80746357991814 50.46157644079989 161.67695410820198 97.0568241990465 86.51676607552668C143.65207195729312 11.356578042851368 401.63332403036577 60.18775752654216 527.8461156875986 103.87067981132941C654.0589073448315 147.5536020961166 681.7973374186424 161.97807294921063 702.8782241537634 296.1947930425049C723.9591108888842 430.41151313579917 712.0946423715429 713.0182718162946 629.0343720161788 748.1109362591415 "></path><path d="M683.9483923646121 302.6826051259079C703.711723678788 428.5107802133713 692.5887844437805 693.4546164763358 614.7197809856266 726.3539893915048C536.8507775274728 759.2533623066738 414.079040573507 589.8172064827077 310.1771757654733 460.59959511872023C206.27531095743973 331.3819837547328 72.30778513370888 176.57213112499892 115.99082990706506 106.10945484436581C159.67387468042125 35.64677856373271 401.53129849892684 81.42600932969287 519.8557906775827 122.37874897168086C638.1802828562385 163.3314886136689 664.1850610504363 176.85443003844455 683.9483923646121 302.6826051259079C703.711723678788 428.5107802133713 692.5887844437805 693.4546164763358 614.7197809856266 726.3539893915048 "></path><path d="M665.0184385051484 309.17044772688905C683.4642143983792 426.6100778085215 673.0828044457056 673.8909916539551 600.4050678847619 704.5970730414462C527.7273313238184 735.3031544289373 413.1403768334502 577.1627423265688 316.1653030126188 456.55963838684727C219.19022919178747 335.9565344471257 94.15387175630536 191.46733865937398 134.92471354477112 125.70217413078308C175.69555533323694 59.937009602192234 401.42915089717553 102.66429165042166 511.8653435972542 140.8868486496105C622.3015362973331 179.10940564879928 646.5726626119176 191.73081764525654 665.0184385051484 309.17044772688905C683.4642143983792 426.6100778085215 673.0828044457056 673.8909916539551 600.4050678847619 704.5970730414462 "></path><path d="M646.0885761984191 315.6582903278702C663.2167966707048 424.70937540367186 653.5769160003649 654.3273668315744 586.0904463366317 682.8401566913876C518.6039766728983 711.3529465512007 412.2018046461278 564.50827817043 322.15352181249875 452.5196816549742C232.10523897886964 340.5310851395185 116.00004993163623 206.36254619374904 153.85868873521162 145.2948934172004C191.717327538787 84.2272406406517 401.3270948481585 123.9025739711505 503.8749880696603 159.39494832754008C606.422881291162 194.8873226839297 628.9603557261333 206.60720525206858 646.0885761984191 315.6582903278702C663.2167966707048 424.70937540367186 653.5769160003649 654.3273668315744 586.0904463366317 682.8401566913876 "></path><path d="M627.1586833741117 322.1460718936951C642.9693484254523 422.80861196366584 634.0709970374462 634.7636809740375 571.7757942709231 661.0831793061726C509.4805915044001 687.4026776383079 411.2632019412274 551.8537529791349 328.1417100948005 448.479663887945C245.02021824837368 345.10557479675504 137.84619758938896 221.2576926929679 172.79263340807393 164.8875516684614C207.7390692267589 108.51741064395492 401.2250082815633 145.14079525672304 495.884602024488 177.90298697031346C590.5441957674127 210.6651786839039 611.3480183227709 221.48353182372438 627.1586833741117 322.1460718936951C642.9693484254523 422.80861196366584 634.0709970374462 634.7636809740375 571.7757942709231 661.0831793061726 "></path><path d="M608.2288210673821 328.6339297534653C622.7219306977778 420.90792481760514 614.5651085921056 615.2000714104457 557.4611727227929 639.326278214903C500.3572368534801 663.4524850193602 410.3246297539051 539.199304081785 334.12992889468046 444.43972241486097C257.9352280354558 349.6801407479369 159.69237576471983 236.15291548613203 191.72660859851436 184.48028621366774C223.76084143230895 132.8076569412035 401.12295223254637 166.3790928362409 487.89424649689397 196.4111019070321C574.6655407612416 226.44311097782332 593.7357114369867 236.35993468932543 608.2288210673821 328.6339297534653C622.7219306977778 420.90792481760514 614.5651085921056 615.2000714104457 557.4611727227929 639.326278214903 "></path><path d="M589.2988977254967 335.1217418368683C602.4744519349472 419.00719189517724 595.0591591116088 595.6364160704869 543.1464901395063 617.5693313472663C491.2338211674037 639.5022466240457 409.3859965314265 526.5448094080682 340.11808665940407 440.3997351654099C270.85017678738166 354.25466092275155 181.53849290489444 251.04809250292897 210.6605227537986 204.07297498250688C239.7825526027027 157.09785746208485 401.0208351483732 187.6173446393916 479.9038299341437 214.91917106738362C558.7868247199142 242.22099749537563 576.1233435160461 251.23629177855935 589.2988977254967 335.1217418368683C602.4744519349472 419.00719189517724 595.0591591116088 595.6364160704869 543.1464901395063 617.5693313472663 "></path><path d="M570.3689896424 341.60958443784943C582.2269884309055 417.1064894903275 575.5532248899011 576.0727912481061 528.8318228150088 595.8124149972076C482.1104207401165 615.5520387463091 408.4473785677369 513.8903452519293 346.1062596829168 436.3597784335368C283.76514079809664 358.82921161514435 203.38462530385812 265.943300037304 229.59445216787185 223.6656942689242C255.80427903188559 181.3880885005443 400.91873332298894 208.8556269601204 471.91342863018247 233.4272707453132C542.9081239373759 257.998914530506 558.5109908538946 266.1126793853714 570.3689896424 341.60958443784943C582.2269884309055 417.1064894903275 575.5532248899011 576.0727912481061 528.8318228150088 595.8124149972076 "></path><path d="M551.4391425944598 348.09739652125245C561.9795859620202 415.2057565678996 556.0473517033496 556.5091359081473 514.5172165256675 574.0554681295707C472.9870813479855 591.6018003509944 407.5088216392037 501.2358505782124 352.0944937415858 432.3197911840857C296.68016584396787 363.40373178995907 225.23081873797804 280.83847705410096 248.52844261710135 243.25838303776334C271.82606649622466 205.6782890214257 400.816692532761 230.0938787632711 463.9230883613775 251.9353399056647C527.0294841899938 273.7768010480583 540.8986992268993 280.9890364746053 551.4391425944598 348.09739652125245C561.9795859620202 415.2057565678996 556.0473517033496 556.5091359081473 514.5172165256675 574.0554681295707 "></path><path d="M532.5092345113633 354.58520860465546C541.7321224579787 413.3050236454717 536.5414174816419 536.9454805681885 500.2025492011701 552.298521261934C463.86368092069824 567.6515619556797 406.57020367551416 488.58135590449535 358.08266676509845 428.27980393463463C309.5951298546828 367.9782519647738 247.07695113694172 295.73365407089796 267.46237203117465 262.8510718066025C287.84779292540753 229.96848954230705 400.71459070737683 251.33213056642177 455.93268705741616 270.44340906601616C511.1507834074556 289.5546875656106 523.2863465647479 295.86539356383923 532.5092345113633 354.58520860465546C541.7321224579787 413.3050236454717 536.5414174816419 536.9454805681885 500.2025492011701 552.298521261934 "></path><path d="M513.5793264282668 361.0730512056366C521.484658953937 411.404321240622 517.035483259934 517.3818557458078 485.8878818766725 530.5416049118753C454.740280493411 543.701354077943 405.63158571182464 475.9268917483565 364.0708397886112 424.23984720276155C322.5100938653978 372.5528026571666 268.9230835359054 310.628861605273 286.3963014452479 282.44379109301974C303.8695193545904 254.25872058076652 400.6124888819926 272.5704128871506 447.94228575345494 288.9515087439458C495.2720826249173 305.332604600741 505.6739939025964 310.7417811706512 513.5793264282668 361.0730512056366C521.484658953937 411.404321240622 517.035483259934 517.3818557458078 485.8878818766725 530.5416049118753 "></path><path d="M494.6494488627484 367.5608632890396C501.2372259674736 409.5035883181941 497.5295795558044 497.818200405849 471.57324506975317 508.78465804423854C445.61691058370184 519.7511156826283 404.69299826571324 463.27239707463957 370.05904332970204 420.1998599533104C335.4250883936908 377.12732283198125 290.76924645244725 325.52403862206995 305.3302613768993 302.03647986185894C319.89127630135135 278.5489211016479 400.5104175741866 293.80866469030127 439.95191496707184 307.45957790429725C479.3934123599571 321.1104911182933 488.06167175802307 325.61813825988514 494.6494488627484 367.5608632890396C501.2372259674736 409.5035883181941 497.5295795558044 497.818200405849 471.57324506975317 508.78465804423854 "></path><path d="M475.7195560384408 374.04870589002076C480.98977772222105 407.6028859133443 478.02366059288573 478.2545755834682 457.2585930040447 487.0277416941799C436.4935254152037 495.8009078048917 403.7543955608128 450.61793291850074 376.0472316120038 416.1599032214374C348.3400676631949 381.70187352437404 312.6153941102 340.419246156445 324.26420604976164 321.6291991482762C335.9130179893233 302.8391521401074 400.4083310075914 315.04694701103006 431.9615289218997 325.9676775822269C463.51472683620784 336.8884081534237 470.4493343546606 340.4945258666972 475.7195560384408 374.04870589002076C480.98977772222105 407.6028859133443 478.02366059288573 478.2545755834682 457.2585930040447 487.0277416941799 "></path><path d="M456.7896632141334 380.53651797342377C460.7423294769685 405.7021529909165 458.517741629967 458.69092024350937 442.94394093833625 465.2707948265431C427.3701402467055 471.850669409577 402.8157928559123 437.96343824478373 382.0354198943056 412.11991597198625C361.25504693269886 386.27639369918876 334.4615417679527 355.31442317324195 343.19815072262395 341.22188791711534C351.9347596772952 327.12935266098873 400.3062444409963 336.2851988141808 423.97114287672747 344.47574674257834C447.63604131245864 352.66629467097596 452.8369969512982 355.3708829559311 456.7896632141334 380.53651797342377C460.7423294769685 405.7021529909165 458.517741629967 458.69092024350937 442.94394093833625 465.2707948265431 "></path><path d="M437.85978564861495 387.02434531561585C440.4948964905051 403.80143532727766 439.0118379258374 439.12728016233956 428.6293041314169 443.5138632176954C418.24677033699635 447.90044627305133 401.8772054098009 425.30895882985584 388.0236234353964 408.07994398132416C374.17004146099197 390.8509291327925 356.3077046844945 370.209615448828 362.1321106542753 360.81459194474354C367.9565166240562 351.41956844065913 400.20417313319024 357.5234658761205 415.9807720903444 362.9838311617189C431.75737104749845 368.4441964473173 435.2246748067248 370.24725530395403 437.85978564861495 387.02434531561585C440.4948964905051 403.80143532727766 439.0118379258374 439.12728016233956 428.6293041314169 443.5138632176954 "></path><path d="M418.9298928243075 393.5121726578079C420.24744824525254 401.90071766363883 419.5059189629187 419.56364008116975 414.31465206570846 421.7569316088477C409.1233851684982 423.95022313652566 400.93860270490046 412.6544794149279 394.0118117176982 404.0399719906621C387.08502073049596 395.4254645663963 378.15385234224726 385.104807724414 381.0660553271377 380.4072959723718C383.97825831202806 375.7097842203296 400.1020865665951 378.7617329380603 407.99038604517216 381.4919155808594C415.87868552374925 384.22209822365863 417.6123374033624 385.123627651977 418.9298928243075 393.5121726578079C420.24744824525254 401.90071766363883 419.5059189629187 419.56364008116975 414.31465206570846 421.7569316088477 "></path></g></svg>