<svg xmlns="http://www.w3.org/2000/svg" version="1.1" xmlns:xlink="http://www.w3.org/1999/xlink" xmlns:svgjs="http://svgjs.dev/svgjs" viewBox="0 0 800 800"><defs><linearGradient x1="50%" y1="0%" x2="50%" y2="100%" id="uundulate-grad"><stop stop-color="hsl(30, 100%, 50%)" stop-opacity="1" offset="45%"></stop><stop stop-color="hsl(30, 100%, 70%)" stop-opacity="1" offset="100%"></stop></linearGradient></defs><g stroke-width="3" stroke="url(#uundulate-grad)" fill="none"><path d="M757.9318397341831 261.2303116834146C803.5947014884778 409.4256299223746 495.23840547404893 689.8153225774435 354.0849039290714 754.0230969753343C212.93140238409387 818.2308713732255 126.05789407258595 717.6229470322505 80.3950323182915 569.4276287932906C34.7321705639971 421.2323105543305 -6.250334036518723 106.8933438262178 134.9031675084588 42.6855694283268C276.0566690534364 -21.522204969564143 712.2689779798889 113.03499344445453 757.9318397341831 261.2303116834146C803.5947014884778 409.4256299223746 495.23840547404893 689.8153225774435 354.0849039290714 754.0230969753343 "></path><path d="M745.5893035714744 266.0154196806594C789.6775838859653 409.10055453206905 491.95426359617227 679.8216370955838 355.66812417343533 741.8153503073406C219.3819847506984 803.8090635190974 135.50411465682868 706.6703779485011 91.41583434233752 563.5852430970914C47.327554027846304 420.50010824568176 7.758239241141382 117.00041623233153 144.04437866387832 55.00670302057472C280.33051808661526 -6.987010191182094 701.5010232569831 122.93028482924979 745.5893035714744 266.0154196806594C789.6775838859653 409.10055453206905 491.95426359617227 679.8216370955838 355.66812417343533 741.8153503073406 "></path><path d="M733.2467979263436 270.80061923063863C775.7604968010314 408.77557069449813 488.67015223587373 669.8280431664587 357.25137493537727 729.6076951920812C225.83259763488104 789.3873472177038 144.95036575864953 695.7179004174861 102.4366668839616 557.7429489536266C59.92296800927369 419.76799748976737 21.76684303637967 127.10758019117958 153.185620336876 67.32792816555695C284.60439763737236 7.54827613993433 690.7330990516556 132.82566776677936 733.2467979263436 270.80061923063863C775.7604968010314 408.77557069449813 488.67015223587373 669.8280431664587 357.25137493537727 729.6076951920812 "></path><path d="M720.9043838339471 275.58578826303983C761.8435012688319 408.45055633934885 485.38613242830945 659.8344187197554 358.8347172500537 717.4000095592438C232.28330207179806 774.9656003987322 154.39670841320475 684.7653923688929 113.45759097832007 551.9006242925839C72.51847354343545 419.03585621627485 35.775538384352274 137.21471363244956 162.32695356260803 79.64912279296112C288.8783687408637 22.08353195347263 679.9652663990624 142.7210201867308 720.9043838339471 275.58578826303983C761.8435012688319 408.45055633934885 485.38613242830945 659.8344187197554 358.8347172500537 717.4000095592438 "></path><path d="M708.5619087063945 280.3709267778628C747.9264447014757 408.12551146662145 482.10205158558915 649.8407637554737 360.4179985295739 705.192293408828C238.73394547355883 760.5438230621824 163.84299003260372 673.8128538027214 124.47845403752234 546.0582691139628C85.1139180424409 418.3036844252041 49.78417269716863 147.3218165561414 171.4682257531838 91.97028690278711C293.15227880919883 36.61875724943286 669.197372711313 152.61634208910414 708.5619087063945 280.3709267778628C747.9264447014757 408.12551146662145 482.10205158558915 649.8407637554737 360.4179985295739 705.192293408828 "></path><path d="M696.2194030612637 285.1560958102639C734.0093576165419 407.80049711147217 478.8179402252904 639.8471393087705 362.00124929151593 692.9846077759905C245.18455835774148 746.1220762432107 173.28924113442457 662.8603457541282 135.49928657914643 540.2159444529199C97.70933202386828 417.5715431517116 63.792776492406915 157.42894999741134 180.60946742618142 104.29148153019128C297.42615835995593 51.15401306297116 658.4294485059855 162.5116945090556 696.2194030612637 285.1560958102639C734.0093576165419 407.80049711147217 478.8179402252904 639.8471393087705 362.00124929151593 692.9846077759905 "></path><path d="M683.876927933711 289.94123432508684C720.092301049186 407.47545223874477 475.5338593825701 629.8534843444891 363.5845305710361 680.776891625575C251.63520175950225 731.7002989066609 182.73552275382355 651.9078071879569 146.52014963834864 534.3735892742989C110.3047765228738 416.83937136064094 77.80141080522333 167.5360529211032 189.7507396167572 116.61264564001726C301.70006842829116 65.68923835893133 647.6615548182361 172.4070164114289 683.876927933711 289.94123432508684C720.092301049186 407.47545223874477 475.5338593825701 629.8534843444891 363.5845305710361 680.776891625575 "></path><path d="M671.5344833237365 294.72643387506616C706.1752749994081 407.1504684011737 472.2498090574277 619.8598904153639 365.1678423681344 668.5692365103156C258.08587567884115 717.2785826052674 192.18183489080064 640.9553296569417 157.54104321512904 528.5312951308341C122.90025153945737 416.10726060472643 91.8100756356178 177.6432168799513 198.89204232491113 128.93387078499956C305.9740090142044 80.22452469004776 636.8936916480649 182.3023993489585 671.5344833237365 294.72643387506616C706.1752749994081 407.1504684011737 472.2498090574277 619.8598904153639 365.1678423681344 668.5692365103156 "></path><path d="M659.1920081961839 299.5115723898891C692.2582184320523 406.82542352844644 468.96572821470727 609.8662354510824 366.7511236476546 656.3615203598999C264.5365190806019 702.8568052687176 201.62811651019962 630.0027910907704 168.56190627433125 522.6889399522131C135.49569603846288 415.3750888136558 105.81870994843416 187.75031980364315 208.0333145154869 141.25503489482554C310.2479190825395 94.75974998600793 626.1257979603156 192.1977212513318 659.1920081961839 299.5115723898891C692.2582184320523 406.82542352844644 468.96572821470727 609.8662354510824 366.7511236476546 656.3615203598999 "></path><path d="M646.8495330686312 304.2967414222902C678.3411618646963 406.50040917329716 465.68164737198686 599.872611004379 368.3344049271748 644.1538347270625C270.9871624823627 688.4350584497458 211.0743981295986 619.0502830421772 179.58276933353346 516.8466152911702C148.09114053746833 414.6429475401633 119.82734426125057 197.85745324491313 217.17458670606266 153.5762295222297C314.52182915087474 109.29500579954629 615.3579042725662 202.09307367128332 646.8495330686312 304.2967414222902C678.3411618646963 406.50040917329716 465.68164737198686 599.872611004379 368.3344049271748 644.1538347270625 "></path><path d="M634.5070579410785 309.08189519590223C664.4241052973405 406.1753795593588 462.39756652926644 589.8789712988867 369.91768620669495 631.9461338354358C277.43780588412346 674.0132963719852 220.52067974899757 608.0977597347949 190.60363239273573 511.0042753713383C160.68658503647384 413.9107910078817 133.83597857406693 207.96457142739405 226.31585889663842 165.89740889084476C318.79573921920996 123.83024635429553 604.5900105848168 211.9884108324457 634.5070579410785 309.08189519590223C664.4241052973405 406.1753795593588 462.39756652926644 589.8789712988867 369.91768620669495 631.9461338354358 "></path><path d="M622.1645828135258 313.86706422830343C650.5070487299845 405.85036520420965 459.113485686546 579.8853468521834 371.50096748621513 619.7384482025984C283.88844928588423 659.5915495530135 229.96696136839654 597.1452516862016 201.62449545193795 505.1619507102954C173.28202953547935 413.1786497343892 147.84461288688328 218.07170486866403 235.45713108721418 178.21860351824893C323.0696492875451 138.36550216783382 593.8221168970674 221.88376325239716 622.1645828135258 313.86706422830343C650.5070487299845 405.85036520420965 459.113485686546 579.8853468521834 371.50096748621513 619.7384482025984 "></path><path d="M609.8220771683951 318.6522332607045C636.5899616450505 405.5253508490604 455.8293743262475 569.8917224054801 373.0842182481572 607.5307625697609C290.3390621700669 645.1698027340419 239.4132124702174 586.1927436376084 212.64532799356203 499.3196260492525C185.87744351690668 412.44650846089667 161.85321668212157 228.17883830993395 244.59837276021187 190.53979814565304C327.3435288383021 152.90075798137212 583.0541926917398 231.7791156723486 609.8220771683951 318.6522332607045C636.5899616450505 405.5253508490604 455.8293743262475 569.8917224054801 373.0842182481572 607.5307625697609 "></path><path d="M597.4796020408425 323.4373717755275C622.6729050776946 405.2003059763331 452.5452934835271 559.8980674411986 374.66749952767736 595.3230464193452C296.78970557182765 630.748025397492 248.85949408961636 575.240205071437 223.6661910527643 493.4772708706315C198.4728880159122 411.714336669826 175.86185099493792 238.2859412336258 253.73964495078764 202.86096225547908C331.6174389066373 167.4359832773323 572.2862990039904 241.67443757472194 597.4796020408425 323.4373717755275C622.6729050776946 405.2003059763331 452.5452934835271 559.8980674411986 374.66749952767736 595.3230464193452 "></path><path d="M585.1371269132899 328.22257132550675C608.7558485103386 404.87532213876193 449.26121264080655 549.9044735120733 376.25078080719754 583.115391304086C303.2403489735884 616.3263090960985 258.30577570901534 564.2877275404219 234.68705411196652 487.63497672716676C211.0683325149177 410.9822259139115 189.87048530775434 248.3931051924739 262.8809171413634 215.18218740046132C335.89134897497246 181.97126960844878 561.5184053162409 251.56982051225157 585.1371269132899 328.22257132550675C608.7558485103386 404.87532213876193 449.26121264080655 549.9044735120733 376.25078080719754 583.115391304086 "></path><path d="M572.7946517857372 333.0077098403297C594.8387919429827 404.5502772660345 445.97713179808613 539.9108185477919 377.8340620867177 570.9076751536703C309.6909923753492 601.9045317595487 267.75205732841437 553.3351889742505 245.70791717116873 481.79262154854564C223.66377701392315 410.2500541228409 203.8791196205707 258.50020811616577 272.02218933193916 227.50335151028736C340.1652590433076 196.50649490440895 550.7505116284915 261.4651424146249 572.7946517857372 333.0077098403297C594.8387919429827 404.5502772660345 445.97713179808613 539.9108185477919 377.8340620867177 570.9076751536703 "></path><path d="M560.4522071757626 337.79287887273085C580.921765893205 404.22526291088536 442.69308147294373 529.9171941010886 379.4173738838159 558.6999895208328C316.1416662946881 587.4827849405771 277.19836946539147 542.3826809256574 256.7288107479491 475.9502968875029C236.2592520305068 409.51791284934836 217.88778445096523 268.60734155743575 281.16349204009305 239.82454613769147C344.4391996292209 211.04175071794725 539.9826484583202 271.36049483457634 560.4522071757626 337.79287887273085C580.921765893205 404.22526291088536 442.69308147294373 529.9171941010886 379.4173738838159 558.6999895208328 "></path><path d="M548.1097320482099 342.57804790513194C567.004709325849 403.9002485557361 439.4090006302233 519.9235696543852 381.0006551633361 546.4923038879953C322.59230969644886 573.0610381216054 286.64465108479044 531.430172877064 267.74967380715134 470.1079722264599C248.85469652951224 408.7857715758558 231.89641876378158 278.71447499870567 290.30476423066887 252.14574076509564C348.7131096975561 225.57700653148555 529.2147547705708 281.2558472545278 548.1097320482099 342.57804790513194C567.004709325849 403.9002485557361 439.4090006302233 519.9235696543852 381.0006551633361 546.4923038879953 "></path><path d="M535.7672264030791 347.3632169375331C553.0876222409149 403.57523420058686 436.1248892699248 509.92994520768195 382.58390592527815 534.2846182551577C329.0429225806315 558.6392913026336 296.0909021866113 520.4776648284708 278.7705063487754 464.2656475654171C261.4501105109396 408.0536303023632 245.9050225590198 288.82160843997565 299.4460059036665 264.46693539249975C352.98698924831314 240.1122623450239 518.4468305652433 291.15119967447924 535.7672264030791 347.3632169375331C553.0876222409149 403.57523420058686 436.1248892699248 509.92994520768195 382.58390592527815 534.2846182551577 "></path><path d="M523.4247512755265 352.1483707111451C539.1705656735592 403.2502045866486 432.84080842720437 499.9363055021895 384.1671872047983 522.0769173635313C335.4935659823923 544.2175292248729 305.53718380601026 509.5251415210886 289.7913694079777 458.42330764558506C274.04555500994513 407.32147377008164 259.9136568718362 298.92872662245657 308.58727809424227 276.78811476111485C357.2608993166483 254.64750289977314 507.67893687749404 301.04653683564163 523.4247512755265 352.1483707111451C539.1705656735592 403.2502045866486 432.84080842720437 499.9363055021895 384.1671872047983 522.0769173635313 "></path><path d="M511.08227614797386 356.93353974354625C525.2535091062032 402.92519023149936 429.55672758448395 489.9426810554862 385.7504684843185 509.86923173069374C341.94420938415305 529.7957824059013 314.98346542540924 498.57263347249534 300.8122324671799 452.58098298454223C286.6409995089506 406.5893324965891 273.9222911846526 309.03586006372655 317.728550284818 289.10930938851897C361.5348093849835 269.18275871331144 496.91104318974465 310.9418892555931 511.08227614797386 356.93353974354625C525.2535091062032 402.92519023149936 429.55672758448395 489.9426810554862 385.7504684843185 509.86923173069374 "></path><path d="M498.7398010204213 361.71870877594733C511.3364525388473 402.60017587635014 426.27264674176354 479.94905660878294 387.3337497638387 497.6615460978562C348.3948527859138 515.3740355869296 324.4297470448082 487.6201254239021 311.8330955263821 446.73865832349935C299.2364440079561 405.8571912230966 287.930925497469 319.1429935049965 326.8698224753938 301.43050401592313C365.80871945331864 283.71801452684974 486.14314950199514 320.8372416755446 498.7398010204213 361.71870877594733C511.3364525388473 402.60017587635014 426.27264674176354 479.94905660878294 387.3337497638387 497.6615460978562 "></path><path d="M486.3973258928686 366.5038778083485C497.4193959714913 402.27516152120086 422.98856589904307 469.95543216207955 388.91703104335886 485.4538604650188C354.8454961876746 500.95228876795795 333.8760286642072 476.66761737530885 322.8539585855844 440.8963336624564C311.8318885069616 405.12504994960403 301.93955981028535 329.25012694626645 336.0110946659696 313.75169864332725C370.0826295216538 298.25327034038804 475.37525581424575 330.73259409549604 486.3973258928686 366.5038778083485C497.4193959714913 402.27516152120086 422.98856589904307 469.95543216207955 388.91703104335886 485.4538604650188 "></path><path d="M474.0548507653159 371.28901632317144C483.50233940413545 401.9501166484735 419.7044850563226 459.9617771977981 390.500312322879 473.2461443146031C361.29613958943537 486.5305114314082 343.32231028360616 465.7150788091375 333.8748216447866 435.0539784838354C324.42733300596706 404.39287815853334 315.94819412310176 339.3572298699583 345.15236685654537 326.0728627531533C374.356539589989 312.7884956363483 464.60736212649635 340.62791599786937 474.0548507653159 371.28901632317144C483.50233940413545 401.9501166484735 419.7044850563226 459.9617771977981 390.500312322879 473.2461443146031 "></path><path d="M461.7123756377633 376.0741853555726C469.5852828367796 401.6251022933243 416.4204042136022 449.96815275109475 392.08359360239916 461.03845868176563C367.74678299119614 472.10876461243646 352.76859190300513 454.7625707605443 344.8956847039888 429.2116538227925C337.02277750497257 403.6607368850408 329.9568284359181 349.4643633112283 354.29363904712113 338.3940573805574C378.63044965832415 327.3237514498866 453.839468438747 350.5232684178208 461.7123756377633 376.0741853555726C469.5852828367796 401.6251022933243 416.4204042136022 449.96815275109475 392.08359360239916 461.03845868176563 "></path><path d="M449.36990051021064 380.85935438797367C455.66822626942366 401.30008793817507 413.13632337088177 439.97452830439147 393.66687488191934 448.8307730489281C374.1974263929569 457.6870177934648 362.2148735224041 443.81006271195105 355.9165477631911 423.36932916174965C349.618222003978 402.9285956115483 343.96546274873447 359.57149675249826 363.4349112376969 350.71525200796157C382.9043597266593 341.85900726342487 443.07157475099757 360.41862083777227 449.36990051021064 380.85935438797367C455.66822626942366 401.30008793817507 413.13632337088177 439.97452830439147 393.66687488191934 448.8307730489281 "></path><path d="M437.02742538265795 385.64452342037475C441.7511697020677 400.97507358302585 409.8522425281613 429.9809038576881 395.2501561614395 436.6230874160906C380.6480697947177 443.26527097449315 371.6611551418031 432.8575546633578 366.9374108223933 417.52700450070677C362.21366650298353 402.19645433805573 357.9740970615509 369.67863019376824 372.57618342827266 363.0364466353657C387.1782697949945 356.39426307696317 432.3036810632482 370.3139732577237 437.02742538265795 385.64452342037475C441.7511697020677 400.97507358302585 409.8522425281613 429.9809038576881 395.2501561614395 436.6230874160906 "></path><path d="M424.6849655138944 390.42967719398683C427.83412839350086 400.6500439690875 406.56817694422995 419.98726415219573 396.8334526997487 424.41538652446405C387.0987284552675 428.8435088967324 381.1074520199911 421.90503135597555 377.9582891403846 411.6846645808748C374.8091262607781 401.46429780577415 371.9827466331563 379.7857483762491 381.71747087763754 375.3576260039808C391.4521951221187 370.92950363171246 421.53580263428785 380.20931041888616 424.6849655138944 390.42967719398683C427.83412839350086 400.6500439690875 406.56817694422995 419.98726415219573 396.8334526997487 424.41538652446405 "></path><path d="M412.34247512755263 395.2148309675989C413.9170565673559 400.3250143551492 403.2840808427204 409.99362444670334 398.4167187204798 412.2076856328375C393.5493565982392 414.42174681897166 390.553718380601 410.95250804859324 388.9791369407978 405.8423246610429C387.4045555009945 400.7321412734925 385.99136568718365 389.89286655873 390.85872780942424 387.67880537259583C395.72608993166483 385.4647441864617 410.7678936877494 390.10464758004855 412.34247512755263 395.2148309675989C413.9170565673559 400.3250143551492 403.2840808427204 409.99362444670334 398.4167187204798 412.2076856328375 "></path></g></svg>