<svg xmlns="http://www.w3.org/2000/svg" version="1.1" xmlns:xlink="http://www.w3.org/1999/xlink" xmlns:svgjs="http://svgjs.dev/svgjs" viewBox="0 0 800 800"><defs><linearGradient x1="50%" y1="0%" x2="50%" y2="100%" id="uundulate-grad"><stop stop-color="hsl(30, 100%, 50%)" stop-opacity="1" offset="45%"></stop><stop stop-color="hsl(30, 100%, 70%)" stop-opacity="1" offset="100%"></stop></linearGradient></defs><g stroke-width="2" stroke="url(#uundulate-grad)" fill="none"><path d="M724.7120317250078 347.3635451865016C728.8876514576339 454.5649609387565 687.5529416344782 551.1689177592045 607.1277461960763 622.1715041778285C526.7025507576742 693.1740905964525 440.60948893608827 709.06847859219 338.6710936206789 688.1759599958967C236.73269830526954 667.2834413996032 166.07503242920882 614.0813324952196 117.82344868211084 521.8874149156202C69.5718649350128 429.693497336021 56.85060883078603 309.04713864373866 107.06349163460789 245.6451556138204C157.27637443842968 182.24317258390204 258.84085283944296 246.31632284009925 358.8452861404563 217.55789637201252C458.8497194414697 188.79946990392585 510.8625328160233 80.56186506398632 587.0847714794714 107.60470856700488C663.3070101429198 134.64755207002338 720.5364119923818 240.16212943424676 724.7120317250078 347.3635451865016C728.8876514576339 454.5649609387565 687.5529416344782 551.1689177592045 607.1277461960763 622.1715041778285 "></path><path d="M712.2231391192232 349.3880030902359C716.2381580929022 452.4662874674041 676.4932448014063 545.3547074870658 599.1613261106352 613.6264251972812C521.8294074198641 681.8981429074964 439.0476172068006 697.1812082880133 341.0299294035224 677.0922480992696C243.01224160024412 657.003287910526 175.07217825787808 605.8474139640032 128.67642465489922 517.1994162913115C82.28067105192036 428.5514186186199 70.04869402862539 312.54530449142544 118.33031210922331 251.58185927035015C166.61193018982124 190.6184140492748 264.2700824984879 252.22721237254132 360.42819144176985 224.57487923015026C456.5863003850519 196.92254608775926 506.59862093750735 92.8479260493558 579.8892350369767 118.85066018687365C653.1798491364463 144.8533943243915 708.2081201455444 246.3097187130678 712.2231391192232 349.3880030902359C716.2381580929022 452.4662874674041 676.4932448014063 545.3547074870658 599.1613261106352 613.6264251972812 "></path><path d="M699.7341854782825 351.41255254670455C703.5886036930142 450.36770554878603 665.4334869331783 539.5405887676611 591.194844990038 605.0814377694678C516.9562030468976 670.6222867712746 437.4856844423567 685.2940295365709 343.3887041512096 666.0086277553769C249.29172386006246 646.723225974183 184.0692630513911 597.6135869855211 139.52933959253136 512.5115092197373C94.98941613367168 427.4094314539532 83.24671819130845 316.0435618918465 129.5970715486825 257.51865447961427C175.94742490605654 198.99374706738195 269.6992511223765 258.13819345771776 362.01103570792725 231.59195364102243C454.3228202934779 205.04571382432698 502.33464802383514 105.13407858745973 572.6936375593259 130.0967033594768C643.0526270948166 155.05932813149394 695.8797672635507 252.45739954462323 699.7341854782825 351.41255254670455C703.5886036930142 450.36770554878603 665.4334869331783 539.5405887676611 591.194844990038 605.0814377694678 "></path><path d="M687.2452623549198 353.4369494152827C690.9390798107044 448.26897104227737 654.3737595825282 533.7263174603661 583.2283943870189 596.5362977537642C512.0830291915092 659.3462780471623 435.92378219549096 673.4066981972378 345.74750941647494 654.9248548235936C255.57123663745892 636.4430114499495 193.06637836248223 589.3796074191484 150.38228504774168 507.82344956027225C107.69819173300112 426.26729170139595 96.44477287156974 319.541666704377 140.8638615057198 263.45529710098776C185.2829501398699 207.36892749759846 275.1284502638432 264.04902195500364 363.59391049166265 238.60887546400386C452.0593707194821 213.16872897300414 498.07070562774106 117.42007853767296 565.498070599253 141.3425939441894C632.925435570765 165.2651093507058 683.5514448991352 258.604927788288 687.2452623549198 353.4369494152827C690.9390798107044 448.26897104227737 654.3737595825282 533.7263174603661 583.2283943870189 596.5362977537642 "></path><path d="M674.756339231557 355.4615293893295C678.2895559283945 446.17041964123746 643.3140322318782 527.9122292585396 575.2619437839996 587.9913408435292C507.209855336121 648.0704524285187 434.3618799486252 661.5195499633735 348.1063146817403 643.841264997279C261.85074941485544 626.1629800311847 202.06349367357336 581.1458109582446 161.23523050295194 503.135573006276C120.40696733233057 425.12533505430747 109.64282755183092 323.0399546223762 152.1306514627571 269.39212282782995C194.61847537368328 215.74429103328373 280.5576494053099 269.9600335577582 365.1767852753982 245.62598039245415C449.7959211454863 221.29192722715004 493.8067632316471 129.706261593355 558.3025036391803 152.58866763437067C622.7982440467133 175.47107367538638 671.2231225347198 264.7526391374215 674.756339231557 355.4615293893295C678.2895559283945 446.17041964123746 643.3140322318782 527.9122292585396 575.2619437839996 587.9913408435292 "></path><path d="M662.2674161081944 357.4859415166966C665.6400320460846 444.07170039351786 632.2543048812282 522.0979732100336 567.2954931809804 579.4462160866145C502.33668148073275 636.7944589631954 432.7999777017594 649.6322338828296 350.46511994700563 632.7575073242849C268.1302621922519 615.8827807657402 211.06060898466444 572.9118466506611 172.0881759581622 498.44752860560016C133.11574293165995 423.9832105605392 122.84088223209216 326.53807469369576 163.39744141979446 275.32878070799256C203.9540006074967 224.11948672228925 285.9868485467767 275.87087731383315 366.7596600591336 252.64291747422465C447.53247157149053 229.4149576346162 489.54282083555313 141.9922768023573 551.1069366791073 163.8345734778723C612.6710525226617 185.6768701533873 658.8948001703042 270.9001826398754 662.2674161081944 357.4859415166966C665.6400320460846 444.07170039351786 632.2543048812282 522.0979732100336 567.2954931809804 579.4462160866145 "></path><path d="M649.7784929848317 359.5104299380091C652.9905081637748 441.97305743974357 621.1945775305783 516.2837934554728 559.3290425779612 570.9011676236452C497.4635076253444 625.5185417918174 431.23807545489365 637.7449940962309 352.823925212271 621.673825945236C274.4097749696484 605.6026577942412 220.05772429575558 564.6779586370228 182.9411214133725 493.7595604988695C145.8245185309894 422.8411623607162 136.0389369123534 330.03627105896066 174.66423137683176 281.26551488210043C213.28952584131014 232.49475870524014 291.41604768824345 281.78179736385334 368.3425348428691 259.65993084994057C445.26902199749463 237.53806433602767 485.27887843945905 154.27836830530498 543.9113697190346 175.0805556153192C602.5438609986102 195.8827429253335 646.5664778058887 277.04780243627454 649.7784929848317 359.5104299380091C652.9905081637748 441.97305743974357 621.1945775305783 516.2837934554728 559.3290425779612 570.9011676236452 "></path><path d="M637.2895698614691 361.53490310053235C640.3409842814649 439.8743992271802 610.1348501799282 510.469598442123 551.3625919749421 562.3561039018867C492.59033376995603 614.2426093616504 429.6761732080279 625.8577390508432 355.1827304775363 610.590129307398C280.6892877470449 595.3225195639528 229.0548396068467 556.4440553645956 193.79406686858277 489.0715771333498C158.53329413031884 421.6990989021043 149.23699159261463 333.5344521654364 185.93102133386907 287.2022337974192C222.6250510751235 240.87001542940197 296.84524682971016 287.69270215508453 369.9254096266045 266.6769289668673C443.00557242349885 245.66115577865014 481.01493604336497 166.56444454946353 536.7158027589617 186.3265224939771C592.4166694745586 206.08860043849063 634.238155441473 283.19540697388464 637.2895698614691 361.53490310053235C640.3409842814649 439.8743992271802 610.1348501799282 510.469598442123 551.3625919749421 562.3561039018867 "></path><path d="M624.8006467381063 363.5593762630558C627.6914603991552 437.77574101461687 599.0751228292781 504.6554034287732 543.396141371923 553.8110401801282C487.7171599145677 602.9666769314833 428.114270961162 613.9704840054554 357.54153574280167 599.50643266956C286.96880052444135 585.0423813336646 238.05195491793785 548.2101520921681 204.6470123237931 484.38359376783023C171.24206972964828 420.5570354434923 162.43504627287587 337.03263327191223 197.19781129090637 293.138952712738C231.96057630893694 249.2452721535638 302.2744459711769 293.60360694631567 371.5082844103399 273.6939270837941C440.74212284950295 253.7842472212726 476.7509936472709 178.85052079362214 529.520235798889 197.57248937263495C582.2894779505069 216.29445795164781 621.9098330770576 289.34301151149475 624.8006467381063 363.5593762630558C627.6914603991552 437.77574101461687 599.0751228292781 504.6554034287732 543.396141371923 553.8110401801282 "></path><path d="M612.3117236147436 365.58384942557916C615.0419365168452 435.6770828020535 588.0153954786282 498.84120841542335 535.4296907689038 545.2659764583699C482.84398605917943 591.6907445013162 426.55236871429634 602.0832289600678 359.900341008067 588.4227360317221C293.24831330183787 574.7622431033765 247.04907022902898 539.9762488197409 215.49995777900335 479.69561040231065C183.95084532897772 419.41497198488037 175.6331009531371 340.5308143783881 208.46460124794373 299.07567162805685C241.2961015427503 257.62052887772563 307.70364511264364 299.51451173754685 373.09115919407543 280.7109252007209C438.47867327550716 261.907338663895 472.4870512511769 191.1365970377807 522.324668838816 208.81845625129284C572.1622864264554 226.50031546480494 609.5815107126421 295.49061604910486 612.3117236147436 365.58384942557916C615.0419365168452 435.6770828020535 588.0153954786282 498.84120841542335 535.4296907689038 545.2659764583699 "></path><path d="M599.822800491381 367.60833784689163C602.3924126345355 433.57843984827923 576.9556681279782 493.0270286608627 527.4632401658846 536.7209279954004C477.9708122037912 580.4148273299384 424.99046646743045 590.1959891734691 362.2591462733324 577.3390546526732C299.52782607923433 564.4821201318773 256.0461855401201 531.7423608061026 226.3529032342136 475.00764229558C196.65962092830716 418.2729237850574 188.83115563339834 344.02901074365286 219.73139120498104 305.0124058021647C250.63162677656373 265.9958008606765 313.13284425411035 305.42543178756705 374.67403397781084 287.7279385764368C436.2152237015114 270.03044536530655 468.22310885508284 203.42268854072836 515.1291018787433 220.06443838873975C562.0350949024037 236.7061882367512 597.2531883482266 301.638235845504 599.822800491381 367.60833784689163C602.3924126345355 433.57843984827923 576.9556681279782 493.0270286608627 527.4632401658846 536.7209279954004 "></path><path d="M587.3338773680184 369.63282626820404C589.7428887522257 431.47979689450494 565.8959407773282 487.2128489063018 519.4967895628655 528.175879532431C473.0976383484028 569.1389101585603 423.4285642205648 578.3087493868704 364.6179515385978 566.2553732736242C305.80733885663085 554.201997160378 265.0433008512112 523.5084727924643 237.20584868942393 470.3196741888494C209.3683965276366 417.13087558523443 202.02921031365958 347.52720710891776 230.99818116201834 310.9491399762726C259.9671520103771 274.37107284362736 318.5620433955771 311.3363518375873 376.2569087615463 294.74495195215263C433.9517741275156 278.153552066718 463.95916645898876 215.70878004367597 507.9335349186704 231.3104205261867C551.9079033783521 246.91206100869738 584.9248659838111 307.78585564190314 587.3338773680184 369.63282626820404C589.7428887522257 431.47979689450494 565.8959407773282 487.2128489063018 519.4967895628655 528.175879532431 "></path><path d="M574.8449542446556 371.6572841719384C577.0933648699158 429.38112342315253 554.8362134266781 481.39863863416304 511.5303389598464 519.6308005518836C468.22446449301447 557.8629624696042 421.8666619736989 566.4214790826936 366.97675680386317 555.1716613769972C312.0868516340273 543.9218436713008 274.04041616230234 515.274554261248 248.0587941446342 465.6316755645407C222.07717212696605 415.98879686783334 215.2272649939208 351.0253729566045 242.26497111905564 316.88584363280233C269.30267724419053 282.7463143090001 323.99124253704383 317.24724137002937 377.83978354528176 301.7619348102904C431.6883245535197 286.2766282505514 459.6952240628948 227.99484102904552 500.73796795859766 242.55637214605548C541.7807118543005 257.1179032630655 572.5965436193956 313.93344492072424 574.8449542446556 371.6572841719384C577.0933648699158 429.38112342315253 554.8362134266781 481.39863863416304 511.5303389598464 519.6308005518836 "></path><path d="M562.3560158625039 373.68175733446174C564.4438257288169 427.2824652105892 543.7764708172391 475.5844436208132 503.56387309803813 511.08573683012514C463.35127537883704 546.5870300394372 420.3047444680442 554.5342240373059 369.33554681033945 544.0879647391594C318.36634915263477 533.6417054410126 283.0375162146044 507.04065098882074 258.9117243410554 460.94369219902103C234.78593246750643 414.84673340922143 228.425304415393 354.52355406308027 253.53174581730394 322.82256254812114C278.63818721921484 291.12157103316196 329.4204264197215 323.15814616126056 379.42264307022816 308.7789329272172C429.42485972073484 294.3997196931739 455.43126640801165 240.28091727320407 493.54238573973566 253.80233902471338C531.6535050714599 267.3237607762226 560.2682059961909 320.0810494583343 562.3560158625039 373.68175733446174C564.4438257288169 427.2824652105892 543.7764708172391 475.5844436208132 503.56387309803813 511.08573683012514 "></path><path d="M549.8671079979304 375.7062610145632C551.7943171052962 425.18383751560395 532.7167587253782 469.7702791250415 495.597437753808 502.54070362594484C458.47811678223786 535.3111281268482 418.7428574799674 542.6469995094964 371.69436733439386 533.0042986188994C324.6458771888203 523.3615977283025 292.0346467844846 498.8067782339715 269.76468505505477 456.25573935107957C247.49472332562488 413.7047004681875 241.62337435444329 358.0217656871342 264.7985510331303 328.7593119810181C287.97372771181733 299.4968582749019 334.8496408199773 329.0690814700698 381.0055331127527 315.79596156172215C427.161425405528 302.5228416533744 451.16733927070663 252.5670240349408 486.346834038452 265.04833642094934C521.5263288061974 277.52964880695794 547.9398988905643 326.2286845135225 549.8671079979304 375.7062610145632C551.7943171052962 425.18383751560395 532.7167587253782 469.7702791250415 495.597437753808 502.54070362594484 "></path><path d="M537.3781696157785 377.73071891829755C539.1447779641973 423.08516404425154 521.6570161159391 463.9560688529026 487.6309718919998 493.99562464539736C453.60492766806055 524.0351804378922 417.1809399743126 530.7597292053196 374.05315734087014 521.9205867222723C330.92537470742775 513.0814442392252 301.0317468367867 490.57285970275507 280.61761525147597 451.5677407267708C260.20348366616525 412.56262175078655 254.82141377591546 361.5199315348209 276.06532573137855 334.6960156375478C297.30923768684164 307.8720997402747 340.27882470265496 334.97997100251195 382.5883926376991 322.8129444198599C424.89796057274316 310.64591783720783 446.9033816158235 264.8530850203103 479.15125181959013 276.2942880408182C511.39912202335665 287.735491061326 535.6115612673599 332.37627379234357 537.3781696157785 377.73071891829755C539.1447779641973 423.08516404425154 521.6570161159391 463.9560688529026 487.6309718919998 493.99562464539736 "></path><path d="M524.8892617512049 379.75520733961C526.4952693406765 420.98652109047725 510.5973040240782 458.14188909834184 479.66453654776967 485.450576182428C448.73176907146126 512.7592632665142 415.6190529862359 518.872489418721 376.41197786492455 510.8369053432234C337.2049027436133 502.80132126772605 310.0288774066669 482.3389716891169 291.4705759654753 446.8797726200402C272.91227452428376 411.4205735509636 268.01948371496576 365.0181279000858 287.3321309472049 340.6327498116557C306.64477817944413 316.24737172322557 345.7080391029108 340.89089105253214 384.1712826802236 329.82995779557575C422.6345262575364 318.7690245386193 442.6394544785186 277.13917652325796 471.95570011830637 287.5402701782651C501.27194575809415 297.9413638332722 523.2832541617333 338.52389358874274 524.8892617512049 379.75520733961C526.4952693406765 420.98652109047725 510.5973040240782 458.14188909834184 479.66453654776967 485.450576182428 "></path><path d="M512.4003386278422 381.77969576092244C513.8457454583667 418.88787813670297 499.53757667342813 452.3277093437811 471.6980859447506 476.90552771945863C443.8585952160729 501.4833460951362 414.05715073937006 506.9852496321223 378.7707831301899 499.7532239641746C343.48441552100974 492.5211982962269 319.02599271775796 474.10508367547857 302.3235214206856 442.19180451330965C285.6210501236132 410.2785253511407 281.217538395227 368.51632426535065 298.5989209042423 346.56948398576355C315.9803034132575 324.6226437061764 351.1372382443775 346.8018111025524 385.754157463959 336.8469711712916C420.37107668354054 326.89213124003084 438.3755120824245 289.4252680262056 464.76013315823354 298.78625231571203C491.14475423404247 308.14723660521844 510.95493179731784 344.6715133851419 512.4003386278422 381.77969576092244C513.8457454583667 418.88787813670297 499.53757667342813 452.3277093437811 471.6980859447506 476.90552771945863 "></path><path d="M499.9113697281124 383.8041536646567C501.1961757996896 416.78920466535055 488.477803546411 446.5134990716423 463.7315895653642 468.36044873891115C438.98537558431747 490.2073984061801 412.4952027161371 495.0979793279455 381.12954261908806 488.66951206754754C349.76388252203907 482.2410448071496 328.0230622524819 465.87116514426225 313.1764210995287 437.50380588900094C298.32977994657546 409.13644663373964 294.41554729912104 372.01449011303737 309.8656650849124 352.5061876422933C325.31578287070374 332.99788517154917 356.5663916094771 352.71270063499446 387.3369864713273 343.86395402942935C418.10758133317756 335.0152074238642 434.1115239099633 301.7113290115751 457.56452042179353 310.0322039355808C481.0175169336237 318.3530788595865 498.62656365653515 350.81910266396295 499.9113697281124 383.8041536646567C501.1961757996896 416.78920466535055 488.477803546411 446.5134990716423 463.7315895653642 468.36044873891115 "></path><path d="M487.4224771223278 385.8286420859692C488.5466824349579 414.69056171157627 477.41810671333906 440.6993193170815 455.7651694799232 459.8154002759418C434.11223224650723 478.9314812348021 410.93333098684946 483.2107395413468 383.4883784019316 477.5858306884986C356.04342581701366 471.9609218356504 337.02020808115117 457.637277130624 324.0293970723171 432.81583778227036C311.038586063483 407.9943984339167 307.6136324969604 375.5126864783022 321.1324855595278 358.44292181640117C334.65133862209524 341.37315715450006 361.9956212685219 358.62362068501466 388.9198917726409 350.8809674051452C415.84416227675985 343.1383141252757 429.8476120314474 313.99742051452273 450.36898397929883 321.27818607302777C470.89035592715027 328.55895163153275 486.2982718096978 356.9667224603621 487.4224771223278 385.8286420859692C488.5466824349579 414.69056171157627 477.41810671333906 440.6993193170815 455.7651694799232 459.8154002759418 "></path><path d="M474.9335387401761 387.8531305072816C475.897143293859 412.591918757802 466.35836410390004 434.88513956252075 447.7987036181149 451.2703518129724C429.23904313232987 467.6555640634241 409.3714134811946 471.3234997547482 385.84716840840787 466.5021493094497C362.3229233356211 461.68079886415126 346.01730813345324 449.40338911698575 334.8823272687383 428.1278696755398C323.7473464040234 406.85235023409376 320.8116719184326 379.0108828435671 332.39926025777606 364.37965599050904C343.9868485971196 349.74842913745096 367.4248051511996 364.5345407350349 390.5027512975873 357.8979807808611C413.58069744397494 351.26142082668724 425.58365437656425 326.2835120174704 443.17340176043695 332.52416821047467C460.76314914430964 338.76482440347894 473.9699341864931 363.1143422567613 474.9335387401761 387.8531305072816C475.897143293859 412.591918757802 466.35836410390004 434.88513956252075 447.7987036181149 451.2703518129724 "></path><path d="M462.4446156168134 389.8776189285941C463.2476194115492 410.4932758040277 455.29863675325004 429.07095980796 439.8322530150958 442.72530335000306C424.36586927694157 456.37964689204614 407.80951123432885 459.43625996814956 388.2059736736732 455.41846793040077C368.6024361130176 451.4006758926521 355.0144234445444 441.1695011033475 345.7352727239486 423.4399015688092C336.45612200335285 405.71030203427085 334.0097265986938 382.50907920883196 343.6660502148134 370.3163901646169C353.322373830933 358.12370112040185 372.85400429266633 370.44546078505516 392.08562608132274 364.91499415657694C411.31724786997916 359.3845275280987 421.31971198047023 338.569603520418 435.9778348003641 343.77015034792163C450.635957620258 348.9706971754252 461.6416118220776 369.26196205316046 462.4446156168134 389.8776189285941C463.2476194115492 410.4932758040277 455.29863675325004 429.07095980796 439.8322530150958 442.72530335000306 "></path><path d="M449.9556924934507 391.90207683232836C450.59809552923934 408.3946023326753 444.23890940260003 423.25674953582114 431.8658024120766 434.1802243694556C419.49269542155326 445.10369920309006 406.2476089874631 447.54898966397275 390.56477893893856 444.3347560337738C374.88194889041404 441.1205224035748 364.0115387556355 432.9355825721311 356.5882181791589 418.75190294450044C349.16489760268223 404.5682233168698 347.20778127895505 386.0072450565187 354.9328401718507 376.25309382114665C362.6578990647464 366.4989425857746 378.28320343413304 376.35635031749723 393.6685008650582 371.9319770147147C409.0537982959833 367.5076037119321 417.0557695843762 350.85566450578756 428.7822678402913 355.0161019677904C440.5087660962064 359.17653942979325 449.3132894576621 375.40955133198145 449.9556924934507 391.90207683232836C450.59809552923934 408.3946023326753 444.23890940260003 423.25674953582114 431.8658024120766 434.1802243694556 "></path><path d="M437.46676937008806 393.92656525364083C437.9485716469295 406.295959378901 433.17918205195 417.4425697812604 423.89935180905746 425.6351759064862C414.61952156616496 433.82778203171205 404.6857067405973 435.66174987737406 392.9235842042039 433.25107465472485C381.16146166781056 430.8403994320756 373.0086540667266 424.7016945584929 367.44116363436916 414.06393483776986C361.8736732020117 403.4261751170469 360.4058359592163 389.50544142178353 366.19963012888803 382.1898279952545C371.9934242985598 374.8742145687255 383.7124025755998 382.2672703675175 395.25137564879367 378.94899039043054C406.79034872198747 375.6307104133436 412.7918271882821 363.1417560087352 421.5867008802185 366.26208410523736C430.3815745721548 369.3824122017395 436.98496709324655 381.5571711283806 437.46676937008806 393.92656525364083C437.9485716469295 406.295959378901 433.17918205195 417.4425697812604 423.89935180905746 425.6351759064862 "></path><path d="M424.97784624672533 395.9510384161642C425.2990477646197 404.19730116633764 422.1194547013 411.62837476791054 415.9329012060383 417.0901121847278C409.7463477107766 422.55184960154503 403.12380449373154 423.7744948319864 395.2823894694693 422.16737801688686C387.440974445207 420.5602612017874 382.0057693778177 416.46779128606556 378.2941090895794 409.3759514722502C374.5824488013411 402.2841116584349 373.6038906394775 393.00362252825937 377.4664200859254 388.1265469105733C381.3289495323732 383.2494712928873 389.1416017170665 388.1781751587486 396.8342504325291 385.96598850735734C404.5268991479916 383.75380185596606 408.5278847921881 375.4278322528938 414.39113392014565 377.5080509838952C420.2543830481032 379.5882697148966 424.65664472883105 387.7047756659907 424.97784624672533 395.9510384161642C425.2990477646197 404.19730116633764 422.1194547013 411.62837476791054 415.9329012060383 417.0901121847278 "></path><path d="M412.48892312336267 397.97552683747665C412.64952388230984 402.09865821256335 411.05972735065 405.81419501334983 407.96645060301915 408.5450637217584C404.8731738553883 411.275932430167 401.56190224686577 411.88725504538775 397.64119473473465 411.083696637838C393.72048722260354 410.28013823028823 391.00288468890886 408.2339032724273 389.14705454478974 404.68798336551964C387.29122440067056 401.142063458612 386.80194531973876 396.5018188935242 388.7332100429627 394.0632810846812C390.6644747661866 391.62474327583817 394.5708008585333 394.08909520876887 398.41712521626454 392.9830018830732C402.26344957399584 391.87690855737753 404.263942396094 387.7139237558414 407.1955669600728 388.75403312134216C410.1271915240516 389.7941424868429 412.3283223644155 393.8523954623899 412.48892312336267 397.97552683747665C412.64952388230984 402.09865821256335 411.05972735065 405.81419501334983 407.96645060301915 408.5450637217584 "></path></g></svg>