<svg xmlns="http://www.w3.org/2000/svg" viewBox="0 0 103.74 104.06"><defs><style>.cls-1{font-size:12px;fill:#b01f32;font-family:MonumentGrotesk-Medium, Monument Grotesk;font-weight:500;}</style></defs><g id="Layer_2" data-name="Layer 2"><g id="Layer_1-2" data-name="Layer 1"><text class="cls-1" transform="matrix(-0.97, 0.24, -0.24, -0.97, 66.02, 93.26)">A</text><text class="cls-1" transform="matrix(-1, 0.06, -0.06, -1, 58.5, 95.11)">B</text><text class="cls-1" transform="translate(50.76 95.65) rotate(-172.62)">O</text><text class="cls-1" transform="translate(41.99 94.51) rotate(-161.35)">U</text><text class="cls-1" transform="matrix(-0.88, -0.48, 0.48, -0.88, 34.23, 91.86)">T</text><text class="cls-1" transform="translate(28.76 88.8) rotate(-146.13)"> </text><text class="cls-1" transform="matrix(-0.8, -0.6, 0.6, -0.8, 26.73, 87.43)"> </text><text class="cls-1" transform="matrix(-0.76, -0.65, 0.65, -0.76, 24.78, 85.96)"> </text><text class="cls-1" transform="matrix(-0.69, -0.72, 0.72, -0.69, 23.38, 85.01)">A</text><text class="cls-1" transform="matrix(-0.55, -0.83, 0.83, -0.55, 17.96, 79.41)">B</text><text class="cls-1" transform="matrix(-0.39, -0.92, 0.92, -0.39, 13.62, 73.05)">O</text><text class="cls-1" transform="matrix(-0.2, -0.98, 0.98, -0.2, 10.19, 64.88)">U</text><text class="cls-1" transform="translate(8.59 56.82) rotate(-91.57)">T</text><text class="cls-1" transform="translate(8.48 50.56) rotate(-86.42)"> </text><text class="cls-1" transform="matrix(0.12, -0.99, 0.99, 0.12, 8.63, 48.12)"> </text><text class="cls-1" transform="matrix(0.17, -0.98, 0.98, 0.17, 8.92, 45.68)"> </text><text class="cls-1" transform="matrix(0.27, -0.96, 0.96, 0.27, 9.03, 44)">A</text><text class="cls-1" transform="translate(11.14 36.53) rotate(-63.84)">B</text><text class="cls-1" transform="matrix(0.6, -0.8, 0.8, 0.6, 14.48, 29.55)">O</text><text class="cls-1" transform="matrix(0.75, -0.67, 0.67, 0.75, 19.82, 22.49)">U</text><text class="cls-1" transform="matrix(0.85, -0.53, 0.53, 0.85, 25.97, 17.05)">T</text><text class="cls-1" transform="translate(31.33 13.8) rotate(-26.6)"> </text><text class="cls-1" transform="matrix(0.92, -0.4, 0.4, 0.92, 33.51, 12.7)"> </text><text class="cls-1" transform="translate(35.76 11.73) rotate(-20.11)"> </text><text class="cls-1" transform="translate(37.29 10.97) rotate(-14.21)">A</text><text class="cls-1" transform="matrix(1, -0.07, 0.07, 1, 44.81, 9.05)">B</text><text class="cls-1" transform="matrix(0.99, 0.12, -0.12, 0.99, 52.51, 8.43)">O</text><text class="cls-1" transform="matrix(0.95, 0.31, -0.31, 0.95, 61.3, 9.48)">U</text><text class="cls-1" transform="translate(69.1 12.06) rotate(28.08)">T</text><text class="cls-1" transform="translate(74.6 15.07) rotate(33.31)"> </text><text class="cls-1" transform="matrix(0.8, 0.6, -0.6, 0.8, 76.64, 16.41)"> </text><text class="cls-1" transform="matrix(0.77, 0.64, -0.64, 0.77, 78.61, 17.86)"> </text><text class="cls-1" transform="matrix(0.7, 0.71, -0.71, 0.7, 80.02, 18.8)">A</text><text class="cls-1" transform="matrix(0.56, 0.83, -0.83, 0.56, 85.47, 24.32)">B</text><text class="cls-1" transform="matrix(0.4, 0.92, -0.92, 0.4, 89.89, 30.66)">O</text><text class="cls-1" transform="translate(93.4 38.79) rotate(77.94)">U</text><text class="cls-1" transform="translate(95.08 46.83) rotate(87.87)">T</text><text class="cls-1" transform="translate(95.25 53.12) rotate(93.04)"> </text><text class="cls-1" transform="translate(95.12 55.53) rotate(96.2)"> </text><text class="cls-1" transform="matrix(-0.16, 0.99, -0.99, -0.16, 94.86, 57.97)"> </text><text class="cls-1" transform="translate(94.77 59.66) rotate(105.32)">A</text><text class="cls-1" transform="matrix(-0.43, 0.9, -0.9, -0.43, 92.74, 67.15)">B</text><text class="cls-1" transform="matrix(-0.6, 0.8, -0.8, -0.6, 89.46, 74.18)">O</text><text class="cls-1" transform="translate(84.19 81.28) rotate(137.69)">U</text><text class="cls-1" transform="translate(78.1 86.78) rotate(147.59)">T</text><text class="cls-1" transform="translate(72.77 90.09) rotate(152.84)"> </text></g></g></svg>