<svg xmlns="http://www.w3.org/2000/svg" viewBox="0 0 144.01 144.15"><defs><style>.cls-1{font-size:12px;fill:#fee4ca;font-family:MonumentGrotesk-Medium, Monument Grotesk;font-weight:500;}</style></defs><g id="Layer_2" data-name="Layer 2"><g id="Layer_1-2" data-name="Layer 1"><text class="cls-1" transform="translate(59.48 113.67) rotate(-160.28)">1</text><text class="cls-1" transform="translate(55.38 112.29) rotate(-153.02)">9</text><text class="cls-1" transform="matrix(-0.8, -0.59, 0.59, -0.8, 49.45, 109.35)">9</text><text class="cls-1" transform="translate(44.07 105.45) rotate(-135.69)">8</text><text class="cls-1" transform="translate(39.36 100.7) rotate(-129.68)"> </text><text class="cls-1" transform="translate(37.8 98.83) rotate(-126.44)"> </text><text class="cls-1" transform="matrix(-0.55, -0.84, 0.84, -0.55, 36.33, 96.85)"> </text><text class="cls-1" transform="matrix(-0.5, -0.87, 0.87, -0.5, 35, 94.81)"> </text><text class="cls-1" transform="translate(33.78 92.7) rotate(-116.69)"> </text><text class="cls-1" transform="translate(32.67 90.51) rotate(-113.44)"> </text><text class="cls-1" transform="translate(31.71 88.29) rotate(-110.25)"> </text><text class="cls-1" transform="matrix(-0.29, -0.96, 0.96, -0.29, 30.86, 85.99)"> </text><text class="cls-1" transform="translate(30.14 83.66) rotate(-103.82)"> </text><text class="cls-1" transform="translate(29.52 81.33) rotate(-99.34)">1</text><text class="cls-1" transform="translate(28.73 77.04) rotate(-92.11)">9</text><text class="cls-1" transform="translate(28.47 70.43) rotate(-83.41)">9</text><text class="cls-1" transform="translate(29.29 63.83) rotate(-76.12)">1</text><text class="cls-1" transform="translate(30.39 59.54) rotate(-71.57)"> </text><text class="cls-1" transform="matrix(0.37, -0.93, 0.93, 0.37, 31.16, 57.22)"> </text><text class="cls-1" transform="translate(32.05 54.96) rotate(-65.09)"> </text><text class="cls-1" transform="translate(33.08 52.74) rotate(-61.85)"> </text><text class="cls-1" transform="translate(34.23 50.59) rotate(-58.64)"> </text><text class="cls-1" transform="translate(35.5 48.51) rotate(-55.47)"> </text><text class="cls-1" transform="matrix(0.61, -0.79, 0.79, 0.61, 36.88, 46.49)"> </text><text class="cls-1" transform="translate(38.38 44.54) rotate(-49.08)"> </text><text class="cls-1" transform="translate(39.98 42.7) rotate(-45.87)"> </text><text class="cls-1" transform="matrix(0.75, -0.66, 0.66, 0.75, 41.62, 40.94)">1</text><text class="cls-1" transform="translate(44.82 38.01) rotate(-34.05)">9</text><text class="cls-1" transform="translate(50.31 34.28) rotate(-25.26)">8</text><text class="cls-1" transform="matrix(0.96, -0.29, 0.29, 0.96, 56.31, 31.45)">2</text><text class="cls-1" transform="translate(62.46 29.7) rotate(-10.96)"> </text><text class="cls-1" transform="matrix(0.99, -0.13, 0.13, 0.99, 64.86, 29.23)"> </text><text class="cls-1" transform="matrix(1, -0.08, 0.08, 1, 67.28, 28.9)"> </text><text class="cls-1" transform="translate(69.71 28.7) rotate(-1.34)"> </text><text class="cls-1" transform="translate(72.16 28.64) rotate(1.88)"> </text><text class="cls-1" transform="translate(74.58 28.72) rotate(5.07)"> </text><text class="cls-1" transform="translate(77.03 28.93) rotate(8.32)"> </text><text class="cls-1" transform="translate(79.44 29.28) rotate(11.56)"> </text><text class="cls-1" transform="matrix(0.97, 0.26, -0.26, 0.97, 81.83, 29.77)"> </text><text class="cls-1" transform="translate(84.16 30.34) rotate(19.32)">1</text><text class="cls-1" transform="translate(88.29 31.7) rotate(26.62)">9</text><text class="cls-1" transform="matrix(0.82, 0.57, -0.57, 0.82, 94.21, 34.69)">8</text><text class="cls-1" transform="matrix(0.74, 0.68, -0.68, 0.74, 99.64, 38.56)">1</text><text class="cls-1" transform="translate(102.87 41.57) rotate(47.01)"> </text><text class="cls-1" transform="matrix(0.64, 0.77, -0.77, 0.64, 104.54, 43.36)"> </text><text class="cls-1" transform="translate(106.11 45.24) rotate(53.52)"> </text><text class="cls-1" transform="matrix(0.55, 0.84, -0.84, 0.55, 107.55, 47.18)"> </text><text class="cls-1" transform="translate(108.89 49.23) rotate(59.99)"> </text><text class="cls-1" transform="translate(110.11 51.33) rotate(63.22)"> </text><text class="cls-1" transform="translate(111.22 53.53) rotate(66.47)"> </text><text class="cls-1" transform="matrix(0.35, 0.94, -0.94, 0.35, 112.2, 55.77)"> </text><text class="cls-1" transform="translate(113.13 57.95) rotate(75.45)">2</text><text class="cls-1" transform="matrix(0.1, 0.99, -0.99, 0.1, 114.75, 64.06)">0</text><text class="cls-1" transform="matrix(-0.06, 1, -1, -0.06, 115.48, 71.01)">0</text><text class="cls-1" transform="matrix(-0.2, 0.98, -0.98, -0.2, 115.08, 77.73)">7</text><text class="cls-1" transform="translate(113.89 83.3) rotate(106.71)"> </text><text class="cls-1" transform="translate(113.19 85.64) rotate(109.95)"> </text><text class="cls-1" transform="matrix(-0.39, 0.92, -0.92, -0.39, 112.36, 87.94)"> </text><text class="cls-1" transform="translate(111.4 90.18) rotate(116.44)"> </text><text class="cls-1" transform="translate(110.32 92.36) rotate(119.64)"> </text><text class="cls-1" transform="matrix(-0.54, 0.84, -0.84, -0.54, 109.11, 94.49)"> </text><text class="cls-1" transform="matrix(-0.59, 0.8, -0.8, -0.59, 107.79, 96.55)"> </text><text class="cls-1" transform="matrix(-0.63, 0.77, -0.77, -0.63, 106.35, 98.52)"> </text><text class="cls-1" transform="matrix(-0.71, 0.71, -0.71, -0.71, 104.93, 100.44)">2</text><text class="cls-1" transform="translate(100.5 104.93) rotate(143.79)">0</text><text class="cls-1" transform="matrix(-0.89, 0.45, -0.45, -0.89, 94.88, 109.07)">0</text><text class="cls-1" transform="matrix(-0.95, 0.31, -0.31, -0.95, 88.66, 112.25)">0</text></g></g></svg>