<svg xmlns="http://www.w3.org/2000/svg" version="1.1" xmlns:xlink="http://www.w3.org/1999/xlink" xmlns:svgjs="http://svgjs.dev/svgjs" viewBox="0 0 800 800"><defs><linearGradient x1="50%" y1="0%" x2="50%" y2="100%" id="uundulate-grad"><stop stop-color="hsl(30, 100%, 50%)" stop-opacity="1" offset="45%"></stop><stop stop-color="hsl(30, 100%, 70%)" stop-opacity="1" offset="100%"></stop></linearGradient></defs><g stroke-width="2" stroke="url(#uundulate-grad)" fill="none"><path d="M708.2091749201453 365.2598422119622C742.6840729105479 497.1843629483153 720.9034954023351 617.9667431484193 671.6818291222698 693.8680425283759C622.4601628422046 769.7693419083325 588.6682310164254 734.6814533220384 471.9451767758328 729.5860792357535C355.22212253524026 724.4907051494685 177.18224674238223 765.9731773292683 111.41116876742592 669.4102469142082C45.64009079246961 572.8473164991481 73.99584624585356 392.91315989353393 156.2440024960431 266.0840132434656C238.49215874623258 139.25486659339742 391.2095745133155 39.96871195877668 506.2023187683367 60.63034299388022C621.1950630233578 81.29197402898376 673.7342769297428 233.33532147560913 708.2091749201453 365.2598422119622C742.6840729105479 497.1843629483153 720.9034954023351 617.9667431484193 671.6818291222698 693.8680425283759 "></path><path d="M696.3549794060142 366.5959504817546C729.5039197814012 493.44645118978644 708.561056792735 609.583355228348 661.2325315234416 682.5653738629215C613.9040062541479 755.5473924974951 581.4117641139757 721.8090380875971 469.178058113406 716.9096399277078C356.9443521128362 712.0102417678183 185.7521638504727 751.897234248395 122.51074272070701 659.0482626954525C59.26932159094133 566.1992911425101 86.53447106534895 393.1856790217273 165.61923669053124 271.23457647358475C244.7040023157134 149.28347392544225 391.5476713225239 53.816017545999216 502.11761772158263 73.682970464368C612.6875641206415 93.54992338273684 663.2060390306272 239.74544977372273 696.3549794060142 366.5959504817546C729.5039197814012 493.44645118978644 708.561056792735 609.583355228348 661.2325315234416 682.5653738629215 "></path><path d="M684.500783891883 367.9321197867031C716.3237666522546 489.7086004664137 696.218618183135 601.2000283434328 650.7832339246132 671.2627662326233C605.3478496660915 741.3255041218141 574.1552972115261 708.9366838883119 466.4109394509792 704.2332616548181C358.66658169043217 699.5298394213244 194.32208095856316 737.8213522026779 133.6103166739881 648.6863395118531C72.89855238941306 559.5513268210284 99.0730958848444 393.45825918507694 174.99447088501933 276.38520073886014C250.91584588519424 159.31214229264333 391.88576813173233 67.663384168378 498.0329166748288 86.73565897001203C604.1800652179252 105.8079337716461 652.6778011315114 246.15563910699257 684.500783891883 367.9321197867031C716.3237666522546 489.7086004664137 696.218618183135 601.2000283434328 650.7832339246132 671.2627662326233 "></path><path d="M672.6465883777519 369.26825857407357C703.1436135231079 485.970719225463 683.876179573535 592.8166709409395 640.333936325785 659.9601280847472C596.791693078035 727.103585228555 566.8988303090764 696.0642991714486 463.64382078855226 691.5568528643505C360.3888112680281 687.0494065572523 202.89199806665363 723.7454396393828 144.7098906272692 638.3243858106757C86.52778318788478 552.9033319819687 111.6117207043398 393.73080883084845 184.36970507950747 281.5357944865574C257.1276894546751 169.34078014226628 392.22386494094076 81.51072027317866 493.9482156280749 99.78831695807793C595.672566315209 118.06591364297725 642.1495632323957 252.56579792268428 672.6465883777519 369.26825857407357C703.1436135231079 485.970719225463 683.876179573535 592.8166709409395 640.333936325785 659.9601280847472 "></path><path d="M660.7923318284644 370.60442787902207C689.9633993588051 482.2328685020901 671.5336799287787 584.4333440560242 629.8845776918004 648.657520454449C588.2354754548221 712.8816968528738 559.6423023714705 683.1919449721635 460.8766410909691 678.8804745914609C362.1109798104678 674.5690042107583 211.4618541395879 709.6695575936657 155.80940354539405 627.9624626270763C100.15695295120025 546.2553676604871 124.15028448867895 394.0033889941981 193.7448782388393 286.68641875183266C263.33947198899966 179.3694485094673 392.5619007149928 95.35808689555745 489.8634535461647 112.84100546372196C587.1650063773363 130.32392403188652 631.6212642981238 258.9759872559541 660.7923318284644 370.60442787902207C689.9633993588051 482.2328685020901 671.5336799287787 584.4333440560242 629.8845776918004 648.657520454449 "></path><path d="M648.9381363143332 371.9405971839708C676.7832462296584 478.4950177787175 659.1912413191786 576.0500171711092 619.4352800929721 637.354912824151C579.6793188667656 698.6598084771928 552.3858354690209 670.3195907728784 458.1095224285423 666.2040963185714C363.83320938806366 662.0886018642643 220.0317712476783 695.5936755479487 166.90897749867514 617.600539443477C113.78618374967198 539.6074033390054 136.6889093081744 394.2759691575478 203.12011243332745 291.8370430171081C269.5513155584805 189.39811687666838 392.89999752420135 109.20545351793618 485.77875249941076 125.89369396936598C578.65750747462 142.5819344207958 621.0930263990081 265.38617658922396 648.9381363143332 371.9405971839708C676.7832462296584 478.4950177787175 659.1912413191786 576.0500171711092 619.4352800929721 637.354912824151 "></path><path d="M637.0839560589911 373.2767664889193C663.6031083593007 474.7571670553448 646.8488179683677 567.6666902861939 608.9859977529329 626.0523051938528C571.1231775374981 684.4379201015117 545.1293838253603 657.4472365735932 455.34241902490453 653.5277180456817C365.5554542244487 649.6081995177703 228.6017036145579 681.5177935022315 178.0085667107453 607.2386162598776C127.41542980693276 532.9594390175237 149.22754938645886 394.54854932089745 212.49536188660466 296.9876672823834C275.76317438675045 199.42678524386946 393.23810959219884 123.05282014031496 481.6940667114459 138.94638247501C570.1500238306928 154.83994480970506 610.5648037586814 271.7963659224938 637.0839560589911 373.2767664889193C663.6031083593007 474.7571670553448 646.8488179683677 567.6666902861939 608.9859977529329 626.0523051938528 "></path><path d="M625.2297605448598 374.61290527628967C650.422955230154 471.0192858143939 634.5063793587677 559.2833328837007 598.5367001541047 614.7496670459766C562.5670209494415 670.2160012082526 537.8729169229107 644.57485185673 452.5753003624776 640.8513092552141C367.27768380204463 637.1277666536981 237.1716207226483 667.4418809389364 189.1081406640264 596.8766625587002C141.0446606054045 526.311444178464 161.76617420595426 394.82109896666896 221.8705960810928 302.1382610300807C281.9750179562313 209.45542309349236 393.57620640140726 136.90015624511562 477.60936566469195 151.99904046307591C561.6425249279765 167.0979246810362 600.0365658595656 278.2065247381855 625.2297605448598 374.61290527628967C650.422955230154 471.0192858143939 634.5063793587677 559.2833328837007 598.5367001541047 614.7496670459766 "></path><path d="M613.3755650307287 375.9490745812383C637.2428021010073 467.2814350910212 622.1639407491676 550.9000059987854 588.0874025552764 603.4470594156785C554.0108643613851 655.9941128325714 530.6164500204609 631.7024976574448 449.8081817000507 628.1749309823244C368.9999133796405 624.6473643072043 245.74153783073882 653.3659988932193 200.2077146173075 586.5147393751008C154.6738914038762 519.6634798569823 174.3047990254497 395.0936791300187 231.2458302755809 307.28888529535607C288.1868615257121 219.48409146069343 393.9143032106157 150.7475228674944 473.524664617938 165.05172896871994C553.1350260252602 179.35593506994553 589.50832796045 284.61671407145536 613.3755650307287 375.9490745812383C637.2428021010073 467.2814350910212 622.1639407491676 550.9000059987854 588.0874025552764 603.4470594156785 "></path><path d="M601.5213695165975 377.28521336860877C624.0626489718607 463.54355385007034 609.8215021395677 542.5166485962923 577.6381049564482 592.1444212678023C545.4547077733284 641.7721939393123 523.3599831180113 618.8301129405816 447.04106303762387 615.4985221918569C370.72214295723643 612.1669314431321 254.31145493882923 639.2900863299242 211.30728857058858 576.1527856739233C168.30312220234794 513.0154850179225 186.8434238449451 395.3662287757902 240.62106447006903 312.43947904305327C294.39870509519295 229.51272931031633 394.2524000198241 164.59485897229507 469.4399635711841 178.10438695678585C544.627527122544 191.61391494127668 578.9800900613343 291.0268728871471 601.5213695165975 377.28521336860877C624.0626489718607 463.54355385007034 609.8215021395677 542.5166485962923 577.6381049564482 592.1444212678023 "></path><path d="M589.6671740024663 378.62138267355726C610.882495842714 459.8057031266976 597.4790635299677 534.133321711377 567.1888073576197 580.8418136375042C536.8985511852719 627.5503055636314 516.1035162155616 605.9577587412964 444.27394437519706 602.8221439189673C372.4443725348324 599.6865290966381 262.88137204691975 625.2142042842072 222.40686252386968 565.790862490324C181.93235300081966 506.3675206964408 199.3820486644405 395.63880893913984 249.99629866455717 317.5901033083286C300.6105486646738 239.5413976775174 394.5904968290324 178.44222559467386 465.35526252443015 191.15707546242987C536.1200282198276 203.87192533018595 568.4518521622185 297.4370622204169 589.6671740024663 378.62138267355726C610.882495842714 459.8057031266976 597.4790635299677 534.133321711377 567.1888073576197 580.8418136375042 "></path><path d="M577.8129937471242 379.9575519785059C597.7023579723564 456.067852403325 585.1366401791566 525.749994826462 556.7395250175805 569.5392060072061C528.3424098560045 613.3284171879502 508.847064571901 593.0854045420112 441.5068409715592 590.1457656460777C374.1666173712174 587.2061267501442 271.4513044137992 611.1383222384901 233.50645173593983 555.4289393067246C195.56159905808045 499.7195563749592 211.92068874272502 395.91138910248947 259.3715481178343 322.740727573604C306.8224074929437 249.5700660447185 394.92860889703 192.28959221705264 461.2705767364653 204.20976396807396C527.6125445759005 216.12993571909522 557.9236295218918 303.84725155368676 577.8129937471242 379.9575519785059C597.7023579723564 456.067852403325 585.1366401791566 525.749994826462 556.7395250175805 569.5392060072061 "></path><path d="M565.9587677154148 381.29372128345443C584.5221743256316 452.33000167995226 572.7941710519785 517.3666679415467 546.2901969011741 558.236598376908C519.7862227503697 599.1065288122691 501.5905671518733 580.2130503427261 438.73969179155415 577.469387373188C375.88881643123517 574.7257244036501 280.0211910043116 597.062440192773 244.6059951716428 545.0670161231253C209.19079933897405 493.0715920534776 224.4592830446423 396.1839692658391 268.74675179474434 327.89135183887936C313.0342205448464 259.59873441191957 395.26667518866026 206.13695883943143 457.1858451721332 217.26245247371799C519.1050151556061 228.38794610800448 547.395361105198 310.2574408869566 565.9587677154148 381.29372128345443C584.5221743256316 452.33000167995226 572.7941710519785 517.3666679415467 546.2901969011741 558.236598376908 "></path><path d="M554.1045722012836 382.629890588403C571.3420211964849 448.59215095657953 560.4517324423784 508.9833410566315 535.8408993023459 546.9339907466099C511.2300661623133 584.8846404365881 494.3341002494236 567.340696143441 435.97257312912734 564.7930091002986C377.61104600883107 562.245322057156 288.591108112402 582.986558147056 255.7055691249239 534.7050929395259C222.82003013744577 486.4236277319959 236.9979078641377 396.45654942918884 278.1219859892325 333.0419761041547C319.2460641143272 269.6274027791206 395.6047719978687 219.98432546181022 453.1011441253793 230.315140979362C510.5975162528898 240.64595649691375 536.8671232060824 316.66763022022644 554.1045722012836 382.629890588403C571.3420211964849 448.59215095657953 560.4517324423784 508.9833410566315 535.8408993023459 546.9339907466099 "></path><path d="M542.2503766871524 383.96605989335154C558.1618680673382 444.8543002332069 548.1092938327785 500.60001417171634 525.3916017035176 535.6313831163117C502.67390957425664 570.662752060907 487.0776333469739 554.468341944156 433.20545446670053 552.116630827409C379.333275586427 549.7649197106622 297.16102522049255 568.9106761013389 266.805143078205 524.3431697559265C236.4492609359175 479.7756634105142 249.53653268363314 396.72912959253847 287.49722018372063 338.19260036943007C325.45790768380806 279.65607114632166 395.9428688070771 233.831692084189 449.01644307862534 243.36782948500604C502.0900173501735 252.90396688582302 526.3388853069666 323.0778195534963 542.2503766871524 383.96605989335154C558.1618680673382 444.8543002332069 548.1092938327785 500.60001417171634 525.3916017035176 535.6313831163117 "></path><path d="M530.3961659142321 385.302198680722C544.9816996794025 441.11641899225606 535.7668399643894 492.21665676922305 514.9422888459002 524.3287449684354C494.11773772741105 556.4408331676478 479.8211511857353 541.5959572272927 430.43832054548454 539.4402220369413C381.0554899052339 537.2844868465901 305.73092706979395 554.8347635380437 277.904701772697 513.9812160547491C250.07847647560016 473.1276685714545 262.0751422443395 397.00167923831 296.87243911941965 343.34319411712727C331.66973599449983 289.6847089959446 396.2809503574964 247.67902818898966 444.93172677308235 256.42048747307194C493.58250318866817 265.1619467571542 515.8106321490619 329.487978369188 530.3961659142321 385.302198680722C544.9816996794025 441.11641899225606 535.7668399643894 492.21665676922305 514.9422888459002 524.3287449684354 "></path><path d="M518.5419856588901 386.6383679856706C531.8015618090449 437.3785682688833 523.4244166135784 483.8333298843079 504.493006505861 513.0261373381373C485.5615963981436 542.2189447919668 472.56469954207466 528.7236030280076 427.6712171418468 526.7638437640518C382.7777347416189 524.8040845000961 314.3008594366735 540.7588814923267 289.0042909847672 503.6192928711498C263.70772253286094 466.47970424997277 274.61378232262393 397.27425940165966 306.24768857269686 348.49381838240265C337.8815948227698 299.71337736314564 396.61906242549395 261.52639481136845 440.8470409851175 269.473175978716C485.07501954474094 277.4199571460635 505.2824095087352 335.89816770245784 518.5419856588901 386.6383679856706C531.8015618090449 437.3785682688833 523.4244166135784 483.8333298843079 504.493006505861 513.0261373381373 "></path><path d="M506.6877901447589 387.97453729061914C518.6214086798982 433.6407175455106 511.0819780039783 475.4500029993927 494.04370890703274 501.72352970783925C477.00543981008707 527.9970564162857 465.308232639625 515.8512488287224 424.9040984794199 514.0874654911622C384.49996431921477 512.3236821536021 322.87077654476394 526.6829994466096 300.1038649380483 493.2573696875504C277.33695333133267 459.8317399284912 287.1524071421194 397.54683956500935 315.622922767185 353.64444264767803C344.09343839225056 309.7420457303467 396.9571592347024 275.37376143374723 436.76233993836354 282.52586448436C476.56752064202465 289.67796753497277 494.75417160961956 342.3083570357277 506.6877901447589 387.97453729061914C518.6214086798982 433.6407175455106 511.0819780039783 475.4500029993927 494.04370890703274 501.72352970783925 "></path><path d="M494.83359463062766 389.3107065955677C505.4412555507515 429.90286682213787 498.7395393943784 467.06667611447756 483.59441130820437 490.42092207754115C468.4492832220305 513.7751680406047 458.05176573717534 502.97889462943726 422.13697981699306 501.41108721827277C386.2221938968107 499.84327980710805 331.4406936528544 512.6071174008927 311.20343889132937 482.895446503951C290.96618412980433 453.18377560700947 299.6910319616148 397.819419728359 324.9981569616731 358.79506691295336C350.30528196173145 319.7707140975478 397.29525604391074 289.221128056126 432.6776388916096 295.578552990004C468.06002173930835 301.93597792388204 484.2259337105038 348.7185463689975 494.83359463062766 389.3107065955677C505.4412555507515 429.90286682213787 498.7395393943784 467.06667611447756 483.59441130820437 490.42092207754115 "></path><path d="M482.97939911649644 390.6468759005163C492.26110242160485 426.1650160987652 486.39710078477833 458.6833492295624 473.1451137093761 479.11831444724305C459.8931266339739 499.5532796649236 450.7952988347257 490.1065404301521 419.36986115456614 488.7347089453831C387.9444234744067 487.3628774606141 340.01061076094487 498.53123535517557 322.30301284461046 472.5335233203517C304.59541492827606 446.53581128552787 312.22965678111024 398.0919998917086 334.37339115616123 363.94569117822874C356.5171255312123 329.7993824647488 397.63335285311916 303.06849467850475 428.59293784485567 308.63124149564806C459.5525228365921 314.1939883127913 473.6976958113881 355.12873570226736 482.97939911649644 390.6468759005163C492.26110242160485 426.1650160987652 486.39710078477833 458.6833492295624 473.1451137093761 479.11831444724305 "></path><path d="M471.1251883435762 391.98302994667574C479.0809340336691 422.42715011660346 474.05464691638923 450.30000708585817 462.6958008517588 467.81569155815583C451.3369547871283 485.3313760304535 443.53881667348696 477.234170972078 416.60272723335027 476.0583154137045C389.6666377932135 474.8824598553311 348.5805126102463 484.45533805066947 333.4025715391025 462.17158487796326C318.2246304679587 439.8878317052571 324.76826634181657 398.36456479626924 343.7486100918603 369.096300184715C362.72895384190406 339.82803557316083 397.9714344035385 316.9158460420945 424.5082215393127 321.683914742503C451.04500867508676 326.4519834429115 463.1694426534833 361.53890977674814 471.1251883435762 391.98302994667574C479.0809340336691 422.42715011660346 474.05464691638923 450.30000708585817 462.6958008517588 467.81569155815583 "></path><path d="M459.27099282944505 393.3191839928353C465.90078090452243 418.68928413444166 461.7122083067892 441.91666494215394 452.2465032529305 456.5130686690687C442.7807981990718 471.1094723959834 436.28234977103733 464.3618015140038 413.8356085709234 463.3819218820259C391.3888673708094 462.40204225004805 357.15042971833674 470.37944074616337 344.5021454923836 451.8096464355749C331.85386126643044 433.2398521249864 337.30689116131197 398.63712970082986 353.12384428634846 374.2469091912013C368.9407974113849 349.85668868157285 398.30953121274695 330.7631974056842 420.42352049255874 334.736587989358C442.53750977237047 338.7099785730317 452.6412047543676 367.9490838512289 459.27099282944505 393.3191839928353C465.90078090452243 418.68928413444166 461.7122083067892 441.91666494215394 452.2465032529305 456.5130686690687 "></path><path d="M447.41679731531383 394.65535329778385C452.72062777537576 414.95143341106893 449.3697696971892 433.5333380572388 441.7972056541022 445.2104610387706C434.2246416110153 456.88758402030237 429.0258828685877 451.48944731471863 411.06848990849653 450.7055436091364C393.11109694840536 449.921639903554 365.7203468264272 456.30355870044633 355.6017194456647 441.4477232519755C345.48309206490217 426.59188780350473 349.8455159808074 398.9097098641795 362.49907848083654 379.3975334564767C375.1526409808657 359.88535704877387 398.64762802195537 344.610564028063 416.3388194458048 347.789276495002C434.0300108696542 350.967988961941 442.1129668552519 374.35927318449876 447.41679731531383 394.65535329778385C452.72062777537576 414.95143341106893 449.3697696971892 433.5333380572388 441.7972056541022 445.2104610387706 "></path><path d="M435.56258654239355 395.99150734394334C439.54045938744 411.2135674289072 437.02731582880006 425.14999591353455 431.34789279648487 433.90783814968336C425.66846976416963 442.6656803858322 421.76940070734895 438.61707785664447 408.3013559872806 438.02915007745776C394.83331126721225 437.441222298271 374.2902486757286 442.22766139594023 366.7012781401567 431.0857848095871C359.1123076045848 419.943908223234 362.38412554151375 399.18227476874006 371.8742974165356 384.54814246296297C381.3644692915575 369.9140101571859 398.98570957237473 358.4579153916527 412.2541031402618 360.841949741857C425.5224967081489 363.22598409206125 431.5847136973471 380.76944725897954 435.56258654239355 395.99150734394334C439.54045938744 411.2135674289072 437.02731582880006 425.14999591353455 431.34789279648487 433.90783814968336 "></path><path d="M423.7083910282624 397.32767664889195C426.36030625829335 407.47571670553447 424.6848772192001 416.7666690286194 420.89859519765656 422.60523051938526C417.1123131761131 428.4437920101512 414.5129338048993 425.7447236573593 405.53423732485373 425.3527718045682C396.55554084480815 424.960819951777 382.86016578381907 428.15177935022314 377.8008520934378 420.72386162598775C372.74153840305655 413.29594390175237 374.92275036100915 399.45485493208975 381.24953161102377 389.69876672823835C387.57631286103833 379.94267852438696 399.32380638158315 372.3052820140315 408.16940209350787 373.894638247501C417.0149978054326 375.4839944809705 421.0564757982314 387.1796365922494 423.7083910282624 397.32767664889195C426.36030625829335 407.47571670553447 424.6848772192001 416.7666690286194 420.89859519765656 422.60523051938526 "></path><path d="M411.8541955141312 398.66383069505144C413.1801531291467 403.73785072337273 412.34243860960004 408.38332688491516 410.4492975988283 411.3026076302981C408.5561565880565 414.22188837568103 407.25646690244963 412.87235419928516 402.76711866242687 412.67637827288956C398.27777042240405 412.480402346494 391.43008289190954 414.07588204571704 388.9004260467189 410.36192318359934C386.3707692015283 406.64796432148165 387.4613751805046 399.7274198366503 390.62476580551186 394.8493757347246C393.78815643051917 389.9713316327989 399.6619031907916 386.1526333776212 404.08470104675393 386.947311494356C408.5074989027163 387.74198961109073 410.5282378991157 393.58981066673016 411.8541955141312 398.66383069505144C413.1801531291467 403.73785072337273 412.34243860960004 408.38332688491516 410.4492975988283 411.3026076302981 "></path></g></svg>