<svg xmlns="http://www.w3.org/2000/svg" version="1.1" xmlns:xlink="http://www.w3.org/1999/xlink" xmlns:svgjs="http://svgjs.dev/svgjs" viewBox="0 0 800 800"><defs><linearGradient x1="50%" y1="0%" x2="50%" y2="100%" id="uundulate-grad"><stop stop-color="hsl(30, 100%, 50%)" stop-opacity="1" offset="45%"></stop><stop stop-color="hsl(30, 100%, 70%)" stop-opacity="1" offset="100%"></stop></linearGradient></defs><g stroke-width="2" stroke="url(#uundulate-grad)" fill="none"><path d="M713.3585358003662 288.7463691974747C743.5432909332023 386.5473302800168 712.3620413269888 563.5783976461628 650.5782399339267 645.1805380379493C588.7944385408647 726.782678429736 499.8974330796183 708.3472689396356 416.79628911366876 680.4366430780501C333.69514514771924 652.5260172164648 320.5861481976398 627.5615042014605 251.69274889736857 511.2095339023383C182.79934959709726 394.85756360321625 33.19158363925351 191.83752086321954 86.1079724723669 121.94718564226332C139.02436130548028 52.056850421307104 375.01421460297956 140.98609493441268 505.6914152963129 175.73592484174821C636.3686159896462 210.48575474908364 683.1737806675302 190.9454081149326 713.3585358003662 288.7463691974747C743.5432909332023 386.5473302800168 712.3620413269888 563.5783976461628 650.5782399339267 645.1805380379493 "></path><path d="M701.3062515583449 293.02538434139694C730.3300545706874 387.06476999768745 700.348083795482 557.286950157443 640.9405824559992 635.7505466880073C581.5330811165165 714.2141432185713 496.0551912499334 696.4877879396286 416.15024512882815 669.6506476881042C336.2452990077229 642.8135074365797 323.640494248031 618.8091679990756 257.39684107469327 506.9322734806889C191.15318790135552 395.05537896230226 47.299566788044274 199.84379940461315 98.18070989680712 132.6415539998476C149.06185300557001 65.43930859508197 375.97517348393467 150.94819754999116 501.6263279967552 184.36149553781377C627.2774825095756 217.7747935256363 672.2824485460026 198.98599868510644 701.3062515583449 293.02538434139694C730.3300545706874 387.06476999768745 700.348083795482 557.286950157443 640.9405824559992 635.7505466880073 "></path><path d="M689.2539673163236 297.30433845016296C717.1168182081724 387.5821486802017 688.3341262639752 550.9954416335672 631.3029249780718 626.3204943029089C574.2717236921683 701.6455469722504 492.2129494202486 684.6282459044653 415.50420114398753 658.8645912630018C338.79545286772645 633.1009366215384 326.69484029842226 610.0567707615344 263.1009332520181 502.6549520238832C199.50702620561378 395.253133286232 61.40754993683498 207.8500169108505 110.25344732124734 143.33586132227555C159.09934470565975 78.82170573370058 376.9361323648898 160.9102391304134 497.5612406971974 192.98700519872307C618.1863490295051 225.06377126703273 661.3911164244751 207.02652822012408 689.2539673163236 297.30433845016296C717.1168182081724 387.5821486802017 688.3341262639752 550.9954416335672 631.3029249780718 626.3204943029089 "></path><path d="M677.2018051446148 301.5833535940851C703.9037039159699 388.09958839787237 676.320290802781 544.7039941448477 621.6653895704569 616.8905029529666C567.0104883381327 689.0770117610856 488.3708296608763 672.7687649044582 414.8582792294594 648.0785958730559C341.3457287980425 623.3884268416533 329.749308419126 601.3044345591495 268.8051474996553 498.37769160223365C207.8609865801846 395.450948645318 75.51565515593819 215.85629545224413 122.32630681600006 154.03022967985976C169.13695847606192 92.20416390747539 377.8972133161574 170.8723417459919 493.4962754679523 201.61257589478862C609.0953376197472 232.3528100435854 650.4999063732598 215.06711879029797 677.2018051446148 301.5833535940851C703.9037039159699 388.09958839787237 676.320290802781 544.7039941448477 621.6653895704569 616.8905029529666 "></path><path d="M665.1495209025936 305.86230770285124C690.6904675534548 388.61696708038676 664.3063332712742 538.4124856209718 612.0277320925294 607.4604505678682C559.7491309137845 676.5084155147646 484.52858783119143 660.909222869295 414.2122352446188 637.2925394479535C343.89588265804605 613.6758560266121 332.80365446951737 592.5520373216084 274.5092396769801 494.1003701454281C216.21482488444286 395.6487029692478 89.62363830472896 223.86251295848143 134.39904424044028 164.72453700228772C179.1744501761516 105.586561046094 378.8581721971125 180.83438332641413 489.43118816839456 210.23808555569798C600.0042041396766 239.64178778498183 639.6085742517322 223.10764832531555 665.1495209025936 305.86230770285124C690.6904675534548 388.61696708038676 664.3063332712742 538.4124856209718 612.0277320925294 607.4604505678682 "></path><path d="M653.0972671781504 310.14129232919527C677.477261708518 389.1343762804793 652.2924062573455 532.121007614674 602.39010513218 598.030428700348C552.4878040070145 663.9398497860218 480.68637651908466 649.0497113517099 413.5662217773563 626.5065135404293C346.44606703562783 603.9633157291489 335.85803103748674 583.7996706016454 280.213362371883 489.82307920620065C224.5686937062793 395.84648781075566 103.73165197109779 231.86876098229692 146.47181218245862 175.4188748422938C189.21197239381945 118.96898870229074 379.8191615956457 190.7964554244145 485.36613138641496 218.86362573418546C590.9131011771842 246.93079604395638 628.7172726477827 231.14820837791132 653.0972671781504 310.14129232919527C677.477261708518 389.1343762804793 652.2924062573455 532.121007614674 602.39010513218 598.030428700348 "></path><path d="M641.0450439712854 314.42029221432847C664.2640863811592 389.65180073936085 640.2785097609949 525.8295448671654 592.7525086894088 588.6004220916168C545.2265076178226 651.371299316068 476.84419572455613 637.1902150929138 412.92023882767194 615.7205028916942C348.99628193078763 594.2507906904748 338.91243812303424 575.0473191404715 285.91751558436397 485.54580352576204C232.92259304569382 396.0442879110527 117.83969615504475 239.87502426490147 158.5446106420551 186.113227941089C199.24952512906538 132.3514316172765 380.78018151175706 200.75854278120391 481.3011051220135 227.48918117146195C581.8220287322699 254.21981956172 617.8260015614114 239.1887836892961 641.0450439712854 314.42029221432847C664.2640863811592 389.65180073936085 640.2785097609949 525.8295448671654 592.7525086894088 588.6004220916168 "></path><path d="M628.992729211686 318.69926158188355C651.0508195010661 390.1691946806643 628.2645217119101 519.5380516020787 583.1148206939032 579.1703849653073C537.9651196758963 638.8027183285361 473.0019233772932 625.3306883165396 412.2741643252531 604.934461725381C351.54640527321305 584.5382351342225 341.96675365584736 566.2949371617193 291.62157724411065 481.2684973277454C241.27640083237395 396.24205749377154 131.9476487862574 247.88125702992784 170.61731754891719 196.80755052230603C209.28698631157698 145.73384401468417 381.74110987513404 210.72059962041516 477.23598730487765 236.11470609116031C572.7308647346213 261.5088125619055 606.9346389223057 247.2293284831028 628.992729211686 318.69926158188355C651.0508195010661 390.1691946806643 628.2645217119101 519.5380516020787 583.1148206939032 579.1703849653073 "></path><path d="M616.9405060048209 322.9782462082277C637.8376441737075 390.6866038807568 616.2506252155595 513.2465735957809 573.4772242511319 569.740363097787C530.7038232867044 626.2341525997932 469.1597425827646 613.4711767989545 411.62818137556883 594.1484358178568C354.09662016837297 574.8256948367593 345.02116074139485 557.5425704417563 297.32573045659166 476.99120638851787C249.63030017178846 396.4398423352794 146.05569297020435 255.88750505374333 182.69011600851366 207.50188836231212C219.3245390468229 159.1162716708809 382.7021297912454 220.68267171841552 473.1709610404762 244.7402462696478C563.639792289707 268.79782082088 596.0433678359343 255.26988853569856 616.9405060048209 322.9782462082277C637.8376441737075 390.6866038807568 616.2506252155595 513.2465735957809 573.4772242511319 569.740363097787 "></path><path d="M604.8882217627996 327.25723083457177C624.6244078111924 391.20401308084934 604.2366676840527 506.9550955894832 563.8395667732045 560.3103412302668C523.4424658623562 613.6655868710504 465.3175007530797 601.6116652813693 410.9821373907281 583.3624099103326C356.6467740283765 565.113154539296 348.0755067917861 548.7902037217932 303.0298226339164 472.7139154492903C257.9841384760468 396.6376271767874 160.1636761189951 263.8937530775588 194.76285343295388 218.1962262023182C229.36203074691264 172.4986993270776 383.6630886722005 230.64474381641588 469.10587374091847 253.36578644813522C554.5486588096364 276.08682907985457 585.1520357144068 263.31044858829426 604.8882217627996 327.25723083457177C624.6244078111924 391.20401308084934 604.2366676840527 506.9550955894832 563.8395667732045 560.3103412302668 "></path><path d="M592.8360138147236 331.5362154609159C611.4112477426227 391.72142228094185 592.2227864464913 500.66361758318544 554.2019855892223 550.8803193627465C516.1811847319534 601.0970211423075 461.4753352173402 589.7521537637842 410.3361696998328 572.5763840028085C359.19700418232543 555.400614241833 351.12992913612266 540.0378370018302 308.73399110518653 468.43662451006276C266.33805307425035 396.8354120182953 174.27173556173113 271.9000011013743 206.8356671513394 228.89056404232429C239.39959874094762 185.88112698327433 384.6241238471009 240.60681591441625 465.04086273530606 261.9913266266227C545.4576016235112 283.3758373388291 574.2607798868244 271.35100864089003 592.8360138147236 331.5362154609159C611.4112477426227 391.72142228094185 592.2227864464913 500.66361758318544 554.2019855892223 550.8803193627465 "></path><path d="M580.7837600902803 335.8152306048382C598.1980418976859 392.2388619986125 580.2088594325627 494.3721700944659 544.5643586288729 541.4503280128043C508.91985782518327 588.5284859311428 457.63312390523356 577.8926727637772 409.6901562325703 561.7903886128624C361.74718855990716 545.6881044619479 354.1843057040921 531.2855007994453 314.4381138000894 464.1593640884133C274.69192189608674 397.0332273773813 188.37974922809997 279.9062796427679 218.9084350933577 239.58493239990855C249.43712095861542 199.2635851570492 385.58511324563415 250.56891852999473 460.97580595332647 270.61689732268826C536.3664986610188 290.6648761153818 563.369478282875 279.39159921106386 580.7837600902803 335.8152306048382C598.1980418976859 392.2388619986125 580.2088594325627 494.3721700944659 544.5643586288729 541.4503280128043 "></path><path d="M568.7314911070482 340.09421523118226C584.9848207939599 392.756271198705 568.1949171598449 488.0806920881681 534.9267164097346 532.020306145284C501.6585156596243 575.9599202024 453.7908973343377 566.033161246192 409.04412750651875 551.0043627053383C364.29735767869977 535.9755641644847 357.2386670132724 522.5331340794824 320.1422212362032 459.88207314918577C283.0457754591341 397.2310122188892 202.4877476356798 287.91252766658334 230.98118777658698 250.27927023991464C259.4746279174942 212.64601281324587 386.5460873853783 260.53099062799504 456.91073391255793 279.2424375011757C527.2753804397373 297.95388437435633 552.4781614201364 287.4321592636596 568.7314911070482 340.09421523118226C584.9848207939599 392.756271198705 568.1949171598449 488.0806920881681 534.9267164097346 532.020306145284 "></path><path d="M556.679252641394 344.3731998575264C571.7716302078121 393.27368039879747 556.1810054047053 481.78921408187045 525.2891047081744 522.5902842777637C494.3972040116432 563.3913544736571 449.94870128102 554.1736497286068 408.3981292980453 540.2183367978141C366.84755731507056 526.2630238670215 360.2930588400308 513.7807673595194 325.8463591898952 455.6047822099582C291.39965953975957 397.4287970603972 216.5957765608377 295.91877569039883 243.05397097739439 260.9736080799207C269.5121653939511 226.02844046944261 387.5070920427007 270.4930627259954 452.8456923893674 287.86797767966317C518.184292736034 305.2428926333309 541.586875074976 295.47271931625534 556.679252641394 344.3731998575264C571.7716302078121 393.27368039879747 556.1810054047053 481.78921408187045 525.2891047081744 522.5902842777637 "></path><path d="M544.6270446933181 348.65218448387054C558.5584701392424 393.7910895988899 544.1671241671438 475.4977360755727 515.6515235241922 513.1602624102435C487.1359228812404 550.8227887449143 446.10653574528055 542.3141382110217 407.75216160715 529.43231089029C369.3977874690195 516.5504835695583 363.3474811843674 505.02840063955625 331.5505276611653 451.32749127073066C299.75357413796314 397.62658190190507 230.70383600357377 303.9250237142143 255.12678469577992 271.6679459199268C279.5497333879861 239.41086812563935 388.46812721760114 280.45513482399576 448.7806813837549 296.4935178581506C509.09323554990874 312.53190089230543 530.6956192473938 303.5132793688511 544.6270446933181 348.65218448387054C558.5584701392424 393.7910895988899 544.1671241671438 475.4977360755727 515.6515235241922 513.1602624102435 "></path><path d="M532.5747604512968 352.9311538514256C545.3452337767274 394.3084835401934 532.153166635637 469.20624281048595 506.01386604626464 503.73022528393403C479.87456545689224 538.2542077573823 442.2642939155958 530.4546114346475 407.1061176223094 518.6462697239767C371.947941329023 506.83792801330605 366.4018272347587 496.2760186608042 337.25461983849004 447.05018507271404C308.1074124422214 397.8243514846239 244.81181915236448 311.93125647924074 267.19952212022014 282.3622685011439C289.5872250880758 252.79328052304697 389.42908609855624 290.41719166320706 444.7155940841973 305.119042777849C500.0021020698383 319.8208938924909 519.804287125866 311.55382416265775 532.5747604512968 352.9311538514256C545.3452337767274 394.3084835401934 532.153166635637 469.20624281048595 506.01386604626464 503.73022528393403 "></path><path d="M520.5225219856427 357.2101384777697C532.1320431905797 394.8258927402859 520.1392548804974 462.91476480418817 496.3762543447044 494.30020341641386C472.6132538089113 525.6856420286394 438.42209786227806 518.5950999170624 406.46011941383597 507.86024381645257C374.4981409653938 497.12538771584286 369.4562190615171 487.5236519408412 342.958757792182 442.7728941334865C316.4612965228469 398.02213632613183 258.9198480775224 319.9375045030562 279.27230532102755 293.05660634115C299.6247625645327 266.1757081792437 390.39009075587853 300.3792637612074 440.65055256100675 313.74458295633644C490.91101436613496 327.10990215146546 508.9130007807057 319.5943842152535 520.5225219856427 357.2101384777697C532.1320431905797 394.8258927402859 520.1392548804974 462.91476480418817 496.3762543447044 494.30020341641386 "></path><path d="M508.4702682611995 361.4891383629029C518.9188373456428 395.3433171991675 508.1253278665688 456.62330205667945 486.738627384355 484.87019680768253C465.35192690214126 513.1170915586856 434.57988655017135 506.7356036582663 405.8141059465735 497.07423316771747C377.04832534297555 487.41286267716873 372.5105956294865 478.77130047966716 348.66288048708486 438.495618453048C324.8151653446833 398.2199364264288 273.02786174389126 327.9437677856607 291.3450732630459 303.7509594399451C309.6622847822005 279.5581510942295 391.35108015441176 310.34135111799685 436.58549577902716 322.37013839361293C481.81991140364255 334.3989256692291 498.0216991767562 327.63495952663834 508.4702682611995 361.4891383629029C518.9188373456428 395.3433171991675 508.1253278665688 456.62330205667945 486.738627384355 484.87019680768253 "></path><path d="M496.4179840191782 365.7681077304579C505.70560098312774 395.8607111404709 496.111370335062 450.3318087915927 477.1009699064275 475.4401596813732C458.0905694777931 500.54851057115377 430.7376447204865 494.8760768818921 405.1680619617328 486.28819200140424C379.5984792029791 477.7003071209165 375.56494167987773 470.0189185009151 354.3669726644097 434.2183122550314C333.1690036489416 398.41770600914765 287.135844892682 335.95000055068715 303.4178106874861 314.44528202116214C319.6997764822902 292.9405634916372 392.31203903536687 320.3034079572081 432.52040847946944 330.99566331331135C472.728777923572 341.68791866941456 487.1303670552286 335.675504320445 496.4179840191782 365.7681077304579C505.70560098312774 395.8607111404709 496.111370335062 450.3318087915927 477.1009699064275 475.4401596813732 "></path><path d="M484.36576081231317 370.04709235680207C492.492425655769 396.37812034056344 484.0974738387115 444.040330785295 467.46337346365635 466.01013781385296C450.8292730886012 487.979944842411 426.8954639259579 483.01656536430687 404.52207901204844 475.5021660938801C382.14869409813895 467.9877668234533 378.61934876542523 461.2665517809521 360.0711258768907 429.9410213158038C341.5229029883561 398.61549085065553 301.24388907662893 343.95624857450264 315.4906091470826 325.1396198611682C329.73732921753617 306.3229911478339 393.2730589514782 330.26548005520846 428.455382215068 339.6212034917988C463.6377054786577 348.9769269283891 476.2390959688573 343.71606437304075 484.36576081231317 370.04709235680207C492.492425655769 396.37812034056344 484.0974738387115 444.040330785295 467.46337346365635 466.01013781385296 "></path><path d="M472.31350708787 374.3260769831462C479.27921981083216 396.8955295406559 472.08354682478284 437.7488527789973 457.825746503307 456.5801159463327C443.56794618183113 475.4113791136681 423.0532526138512 471.1570538467218 403.87606554478594 464.7161401863559C384.6988784757207 458.2752265259901 381.67372533339466 452.51418506098906 365.77524857179355 425.66373037657627C349.8767718101925 398.8132756921635 315.3519027429978 351.96249659831807 327.5633770891009 335.83395770117437C339.77485143520397 319.7054188040306 394.2340483500115 340.2275521532088 424.3903254330884 348.24674367028626C454.5466025161653 356.26593518736365 465.3477943649078 351.75662442563646 472.31350708787 374.3260769831462C479.27921981083216 396.8955295406559 472.08354682478284 437.7488527789973 457.825746503307 456.5801159463327 "></path><path d="M460.2612533634268 378.6050768682794C466.0660139658953 397.4129539995375 460.0696198108542 431.4573900314886 448.1881195429577 447.15010933760146C436.3066192750611 462.84282864371426 419.2110413017445 459.2975575879257 403.23005207752345 453.9301295376208C387.24906285330235 448.56270148731596 384.728101901364 443.76183359981513 371.4793712666965 421.3864546961378C358.2306406320289 399.0110757924604 329.45991640936666 359.9687598809226 339.6361450311192 346.5283107999695C349.8123736528718 333.0878617190164 395.19503774854473 350.18963950999824 420.32526865110884 356.87229910756275C445.45549955367295 363.55495870512726 454.4564927609583 359.7971997370213 460.2612533634268 378.6050768682794C466.0660139658953 397.4129539995375 460.0696198108542 431.4573900314886 448.1881195429577 447.15010933760146 "></path><path d="M448.20899963898364 382.8840614946235C452.8528081209584 397.93036319963 448.05569279692554 425.1659120251909 438.5504925826083 437.7200874700811C429.0452923682911 450.2742629149714 415.3688299896378 447.4380460703406 402.5840386102609 443.14410363009665C389.7992472308841 438.85016118985277 387.7824784693334 435.0094668798521 377.18349396159937 417.1091637569102C366.58450945386534 399.20886063396836 343.5679300757355 367.9750079047381 351.70891297313756 357.2226486399756C359.8498958705396 346.4702893752131 396.15602714707796 360.1517116079986 416.26021186912925 365.4978392860502C436.36439659118054 370.8439669641018 443.5651911570088 367.83775978961705 448.20899963898364 382.8840614946235C452.8528081209584 397.93036319963 448.05569279692554 425.1659120251909 438.5504925826083 437.7200874700811 "></path><path d="M436.15674591454047 387.16304612096764C439.63960227602155 398.4477723997225 436.0417657829969 418.87443401889317 428.912865622259 428.29006560256084C421.78396546152106 437.7056971862286 411.5266186775311 435.5785345527554 401.9380251429984 432.3580777225725C392.3494316084658 429.1376208923896 390.83685503730277 426.2571001598891 382.88761665650225 412.83187281768267C374.9383782757017 399.40664547547624 357.6759437421044 375.9812559285536 363.7816809151559 367.9169864799817C369.8874180882075 359.85271703140984 397.1170165456112 370.11378370599897 412.19515508714966 374.12337946453766C427.2732936286881 378.13297522307636 432.6738895530594 375.87831984221276 436.15674591454047 387.16304612096764C439.63960227602155 398.4477723997225 436.0417657829969 418.87443401889317 428.912865622259 428.29006560256084 "></path><path d="M424.10450744888635 391.4420154885227C426.42641168987376 398.9651663410259 424.0278540278573 412.5829407538064 419.2752539206987 418.8600284762515C414.52265381354005 425.1371161986967 407.6844226242134 423.7190077763812 401.292026934525 421.57203655625926C394.8996312448366 419.4250653361373 393.89124686406126 417.504718181137 388.5917546101942 408.55456661966605C383.29226235632717 399.6044150581951 371.7839726672623 383.98748869357996 375.8544641159633 378.61130906119877C379.92495556466434 373.2351294288175 398.07802120293354 380.0758405452102 408.1301135639592 382.748904384236C418.1822059249848 385.42196822326184 421.78260320789894 383.91886463601946 424.10450744888635 391.4420154885227C426.42641168987376 398.9651663410259 424.0278540278573 412.5829407538064 419.2752539206987 418.8600284762515 "></path><path d="M412.0522537244432 395.72101537365586C413.21320584493685 399.4825907999075 412.01392701392865 406.2914780062977 409.63762696034934 409.4300218675203C407.26132690677 412.56856572874284 403.8422113121067 411.85951151758513 400.6460134672625 410.78602590752416C397.44981562241827 409.7125402974632 396.94562343203063 408.75236671996305 394.2958773050971 404.27729093922756C391.6461311781636 399.8022151584921 385.89198633363117 391.9937519761845 387.92723205798166 389.3056621599939C389.9624777823322 386.61757234380326 399.03901060146677 390.03792790199964 404.0650567819796 391.3744598215126C409.0911029624924 392.71099174102545 410.8913016039495 391.95943994740423 412.0522537244432 395.72101537365586C413.21320584493685 399.4825907999075 412.01392701392865 406.2914780062977 409.63762696034934 409.4300218675203 "></path></g></svg>