<svg xmlns="http://www.w3.org/2000/svg" version="1.1" xmlns:xlink="http://www.w3.org/1999/xlink" xmlns:svgjs="http://svgjs.dev/svgjs" viewBox="0 0 800 800"><defs><linearGradient x1="50%" y1="0%" x2="50%" y2="100%" id="uundulate-grad"><stop stop-color="hsl(30, 100%, 50%)" stop-opacity="1" offset="45%"></stop><stop stop-color="hsl(30, 100%, 70%)" stop-opacity="1" offset="100%"></stop></linearGradient></defs><g stroke-width="2" stroke="url(#uundulate-grad)" fill="none"><path d="M697.4088627386196 264.3122969113772C716.5850768268298 348.16651183111173 692.5208603426025 472.047884875829 643.3460801091669 542.6247758214861C594.1712998757312 613.2016667671433 573.6374878422984 580.5467702368599 461.3699176181276 603.0813734505308C349.10234739395696 625.6159766642018 148.18192604601143 709.3279819513809 104.4617430331482 650.7908712471058C60.74156002028502 592.2537605428307 198.03946779647936 423.35734239218846 251.5130391563854 322.10324207001077C304.9866105162914 220.8491417478329 298.6792161170773 202.68341842216205 361.13488556069683 164.77118970065152C423.59055500431623 126.85896097914105 481.2431739070255 119.38681353785984 551.3002524857593 140.12454420676113C621.3573310644933 160.86227487566242 678.2326486504096 180.45808199164264 697.4088627386196 264.3122969113772C716.5850768268298 348.16651183111173 692.5208603426025 472.047884875829 643.3460801091669 542.6247758214861 "></path><path d="M681.7557614873683 271.45374854391986C699.9227011498831 350.89458373103685 677.1250223753522 468.2558845102427 630.538388469992 535.1182022482335C583.951754564632 601.9805199862245 564.4986694803272 571.044302220693 458.1399187416391 592.392873686276C351.78116800295106 613.7414451518589 161.4355056733184 693.0475554239234 120.0163849242901 637.5913452830312C78.59726417526178 582.135135142139 208.66896627902486 422.1280021573201 259.32813914630424 326.2030650099937C309.98731201358373 230.27812786266736 304.01188574064395 213.06849523834757 363.18041468723095 177.15164697586397C422.3489436338177 141.23479871338031 476.96721417322647 134.1559221900613 543.3370780899218 153.80219335007303C609.706942006617 173.44846451008476 663.5888218248535 192.01291335680293 681.7557614873683 271.45374854391986C699.9227011498831 350.89458373103685 677.1250223753522 468.2558845102427 630.538388469992 535.1182022482335 "></path><path d="M666.102660236117 278.5952001764625C683.2603254729364 353.62265563096184 661.7291844081017 464.4638841446563 617.7306968308171 527.611628674981C573.7322092535326 590.7593732053058 555.3598511183558 561.5418342045259 454.9099198651504 581.704373922021C354.45998861194505 601.866913639516 174.68908530062532 676.7671288964658 135.57102681543194 624.3918193189565C96.45296833023855 572.0165097414472 219.29846476157036 420.89866192245154 267.1432391362231 330.3028879499767C314.98801351087593 239.70711397750176 309.3445553642107 223.45357205453314 365.22594381376496 189.53210425107636C421.1073322633192 155.61063644761964 472.69125443942744 148.92503084226274 535.3739036940841 167.47984249338492C598.0565529487408 186.03465414450716 648.9449949992974 203.56774472196315 666.102660236117 278.5952001764625C683.2603254729364 353.62265563096184 661.7291844081017 464.4638841446563 617.7306968308171 527.611628674981 "></path><path d="M650.4495589848655 285.7366365502161C666.5979497959898 356.3507122720978 646.3333464408512 460.6718685202808 604.9230051916422 520.1050398429394C563.5126639424332 579.538211165598 546.2210327563845 552.03935092957 451.6799209886618 571.0158588989771C357.13880922093915 589.9923668683841 187.9426649279323 660.4866871102192 151.12566870657383 611.1922780960929C114.30867248521531 561.8978690819665 229.9279632441158 419.669306428794 274.95833912614194 334.4026956311707C319.9887150081681 249.13608483354722 314.6772249877773 233.8386336119296 367.27147294029896 201.91254626749975C419.8657208928207 169.98645892306985 468.4152947056284 163.69412423567513 527.4107292982465 181.1574763779078C586.4061638908645 198.62082852014044 634.3011681737413 215.12256082833437 650.4495589848655 285.7366365502161C666.5979497959898 356.3507122720978 646.3333464408512 460.6718685202808 604.9230051916422 520.1050398429394 "></path><path d="M634.7964729924032 292.87813395912593C649.9355893778322 359.07882994838997 630.9375237323898 456.87991393106154 592.1153288112564 512.5985120460541C553.2931338901228 568.3171101610465 537.0822296532021 542.5369286897701 448.4499373709623 560.3274049110894C359.8176450887222 578.1178811324085 201.19625981402834 644.2063063591288 166.68032585650474 597.9927979083853C132.1643918989812 551.7792894576419 240.55747698545036 418.44001197029274 282.7734543748499 338.5025643475208C324.9894317642494 258.5651167247488 320.009909870133 244.22375620448236 369.31701732562215 214.29304931907933C418.62412478111116 184.3623424336763 464.13935023061845 178.46327866424377 519.4475701611977 194.8351712975869C574.7557900917773 211.20706393093002 619.6573566069743 226.67743796986178 634.7964729924032 292.87813395912593C649.9355893778322 359.07882994838997 630.9375237323898 456.87991393106154 592.1153288112564 512.5985120460541 "></path><path d="M619.1433717411519 300.01958559166854C633.2732137008857 361.8069018483151 615.5416857651393 453.0879135654752 579.3076371720815 505.09193847280153C543.0735885790236 557.0959633801278 527.9434112912309 533.0344606736032 445.2199384944736 549.6389051468344C362.4964656977163 566.2433496200656 214.4498394413353 627.9258798316713 182.23496774764664 584.7932719443107C150.02009605395796 541.6606640569502 251.18697546799586 417.2106717354243 290.58855436476875 342.6023872875038C329.99013326154164 267.9941028395833 325.34257949369965 254.60883302066793 371.36254645215615 226.67350659429178C417.38251341061255 198.73818016791563 459.8633904968193 193.23238731644523 511.4843957653602 208.5128204408988C563.105401033901 223.79325356535242 605.0135297814181 238.23226933502207 619.1433717411519 300.01958559166854C633.2732137008857 361.8069018483151 615.5416857651393 453.0879135654752 579.3076371720815 505.09193847280153 "></path><path d="M603.4902704899005 307.1610372242112C616.610838023939 364.5349737482401 600.1458477978888 449.2959131998888 566.4999455329066 497.58536489954895C532.8540432679242 545.874816599209 518.8045929292597 523.5319926574361 441.989939617985 538.9504053825794C365.1752863067103 554.3688181077227 227.70341906864223 611.6454533042138 197.78960963878848 571.593745980236C167.87580020893472 531.5420386562583 261.81647395054136 415.9813315005558 298.4036543546876 346.7022102274868C334.9908347588339 277.4230889544177 330.67524911726633 264.99390983685345 373.40807557869016 239.05396386950417C416.14090204011404 213.1140179021549 455.5874307630203 208.00149596864668 503.52122136952244 222.19046958421075C551.4550119760247 236.37944319977476 590.3697029558621 249.7871007001823 603.4902704899005 307.1610372242112C616.610838023939 364.5349737482401 600.1458477978888 449.2959131998888 566.4999455329066 497.58536489954895 "></path><path d="M587.8371692386492 314.3024888567538C599.9484623469923 367.2630456481652 584.7500098306384 445.50391283430235 553.6922538937316 490.07879132629637C522.6344979568248 534.6536698182903 509.6657745672883 514.0295246412693 438.7599407414964 528.2619056183246C367.85410691570434 542.4942865953799 240.9569986959492 595.3650267767562 213.34425152993037 558.3942200161614C185.73150436391148 521.4234132555666 272.44597243308687 414.75199126568737 306.2187543446065 350.80203316746974C339.9915362561261 286.8520750692522 336.007918740833 275.378986653039 375.4536047052243 251.43442114471662C414.89929066961554 227.48985563639417 451.31147102922125 222.77060462084813 495.5580469736848 235.86811872752264C539.8046229181484 248.96563283419715 575.725876130306 261.3419320653426 587.8371692386492 314.3024888567538C599.9484623469923 367.2630456481652 584.7500098306384 445.50391283430235 553.6922538937316 490.07879132629637 "></path><path d="M572.1840832461869 321.4439710068746C583.2861019288348 369.9911480656683 569.3541871221769 441.71194298629416 540.8845775133458 482.5722482706219C512.4149679045146 523.4325535549497 500.52697146410605 504.52708714268033 435.52995712379675 517.5734363716479C370.53294278348744 530.6197856006152 254.21059358204525 579.0846307668768 228.89890867986128 545.1947245696649C203.58722377767737 511.3048183724529 283.0754861744214 413.52268154839703 314.0338695933144 354.9018866250309C344.99225301220736 296.28109170166476 341.3406036231887 285.76409398680266 377.49914909054735 263.81490893750714C413.657694557906 241.86572388821162 447.0355265542113 237.5397437906277 487.5948878366362 249.54579838841266C528.1542491190611 261.5518529861976 561.082064563539 272.8967939480809 572.1840832461869 321.4439710068746C583.2861019288348 369.9911480656683 569.3541871221769 441.71194298629416 540.8845775133458 482.5722482706219 "></path><path d="M556.5309819949355 328.5854226394173C566.6237262518882 372.71921996559337 553.9583491549265 437.91994262070773 528.0768858741709 475.06567469736933C502.1954225934153 512.2114067740309 491.38815310213477 495.02461912651347 432.29995824730815 506.8849366073929C373.2117633924815 518.7452540882723 267.4641732093522 562.8042042394193 244.45355057100318 531.9951986055903C221.44292793265413 501.1861929717612 293.70498465696693 412.2933413135286 321.84896958323327 359.00170956501387C349.9929545094996 305.7100778164992 346.67327324675534 296.14917080298824 379.54467821708135 276.1953662127196C412.4160831874075 256.2415616224509 442.75956682041226 252.30885244282916 479.63171344079853 263.2234475317246C516.5038600611848 274.13804262062 546.4382377379828 284.4516253132412 556.5309819949355 328.5854226394173C566.6237262518882 372.71921996559337 553.9583491549265 437.91994262070773 528.0768858741709 475.06567469736933 "></path><path d="M540.8778807436842 335.7268742719599C549.9613505749415 375.4472918655184 538.5625111876761 434.1279422551213 515.269194234996 467.55910112411675C491.975877282316 500.9902599931122 482.2493347401636 485.5221511103465 429.06995937081956 496.1964368431379C375.89058400147553 506.87072257592945 280.7177528366592 546.5237777119617 260.008192462145 518.7956726415156C239.2986320876309 491.0675675710695 304.33448313951243 411.06400107866006 329.6640695731521 363.10153250499684C354.99365600679187 315.1390639313337 352.005942870322 306.5342476191738 381.5902073436155 288.575823487932C411.17447181690886 270.61739935669016 438.48360708661323 267.0779610950306 471.6685390449609 276.9010966750365C504.8534710033085 286.7242322550424 531.7944109124268 296.00645667840143 540.8778807436842 335.7268742719599C549.9613505749415 375.4472918655184 538.5625111876761 434.1279422551213 515.269194234996 467.55910112411675 "></path><path d="M525.2247794924327 342.86832590450257C533.2989748979949 378.1753637654434 523.1666732204255 430.335941889535 502.4615025958211 460.05252755086417C481.7563319712166 489.7691132121936 473.1105163781922 476.0196830941795 425.8399604943309 485.50793707888306C378.5694046104696 494.9961910635866 293.9713324639662 530.2433511845041 275.5628343532869 505.59614667744097C257.15433624260766 480.9489421703778 314.96398162205793 409.83466084379154 337.47916956307097 367.20135544497987C359.99435750408406 324.56805004616814 357.33861249388866 316.91932443535933 383.6357364701495 300.9562807631444C409.93286044641036 284.9932370909295 434.2076473528142 281.84706974723207 463.7053646491232 290.5787458183484C493.20308194543225 299.31042188946475 517.1505840868706 307.5612880435617 525.2247794924327 342.86832590450257C533.2989748979949 378.1753637654434 523.1666732204255 430.335941889535 502.4615025958211 460.05252755086417 "></path><path d="M509.5716934999705 350.00977753704524C516.6366144798374 380.9034356653685 507.7708505119642 426.54394152394855 489.6538262154353 452.5459539776117C471.53680191890635 478.54796643127486 463.97171327500996 466.51721507801255 422.6099768766313 474.8194373146282C381.2482404782527 483.12165955124374 307.22492735006216 513.9629246570466 291.1174915032178 492.39662071336625C275.0100556563735 470.8303167696861 325.5934953633925 408.6053206089231 345.2942848117789 371.30117838496284C364.9950742601653 333.9970361610026 362.67129737624435 327.3044012515449 385.6812808554726 313.3367380383568C408.6912643347008 299.36907482516875 429.9317028778042 296.6161783994335 455.74220551207463 304.25639496166036C481.552708146345 311.89661152388715 502.5067725201036 319.11611940872194 509.5716934999705 350.00977753704524C516.6366144798374 380.9034356653685 507.7708505119642 426.54394152394855 489.6538262154353 452.5459539776117 "></path><path d="M493.91859224871905 357.151259687166C499.9742388028907 383.63153808287166 492.37501254471374 422.75197167594024 476.8461345762603 445.03941092193725C461.31725660780694 467.32685016793425 454.8328949130387 457.0147775794237 419.3799780001427 464.13096806795136C383.92706108724667 471.247158556479 320.47850697736914 497.68252864716715 306.6721333943597 479.19712526686976C292.8657598113503 460.7117218865724 336.22299384593794 407.37601089163275 353.1093848016978 375.40103184252393C369.9957757574576 343.4260527934152 368.00396699981104 337.68950858530854 387.72680998200667 325.71722583114735C407.4496529642023 313.74494307698615 425.65574314400516 311.38531756921316 447.7790311162369 317.9340746225504C469.90231908846874 324.4828316758876 487.86294569454753 330.67098129146035 493.91859224871905 357.151259687166C499.9742388028907 383.63153808287166 492.37501254471374 422.75197167594024 476.8461345762603 445.03941092193725 "></path><path d="M478.26549099746774 364.29271131970864C483.3118631259441 386.35960998279666 476.97917457746325 418.95997131035386 464.03844293708545 437.53283734868467C451.09771129670764 456.10570338701547 445.6940765510674 447.51230956325674 416.1499791236541 453.44246830369644C386.6058816962408 459.37262704413615 333.7320866046761 481.40210211970964 322.22677528550156 465.99759930279515C310.72146396632706 450.5930964858806 346.85249232848344 406.1466706567643 360.92448479161663 379.50085478250696C374.99647725474983 352.8550389082496 373.3366366233777 348.0745854014941 389.7723391085407 338.0976831063598C406.20804159370374 328.1207808112254 421.37978341020613 326.1544262214146 439.81585672039927 331.6117237658623C458.2519300305924 337.06902131031 473.2191188689914 342.2258126566206 478.26549099746774 364.29271131970864C483.3118631259441 386.35960998279666 476.97917457746325 418.95997131035386 464.03844293708545 437.53283734868467 "></path><path d="M462.61238974621637 371.4341629522513C466.64948744899743 389.0876818827217 461.58333661021277 415.1679709447675 451.23075129791056 430.0262637754321C440.8781659856083 444.8845566060968 436.5552581890961 438.00984154708976 412.9199802471654 442.75396853944153C389.28470230523476 447.4980955317933 346.9856662319831 465.1216755922521 337.78141717664346 452.7980733387205C328.5771681213038 440.4744710851889 357.48199081102894 404.91733042189577 368.7395847815355 383.60067772248993C379.99717875204203 362.28402502308404 378.6693062469443 358.4596622176797 391.81786823507474 350.4781403815722C404.9664302232052 342.49661854546474 417.1038236764071 340.92353487361606 431.8526823245616 345.28937290917423C446.6015409727161 349.6552109447324 458.5752920434353 353.78064402178086 462.61238974621637 371.4341629522513C466.64948744899743 389.0876818827217 461.58333661021277 415.1679709447675 451.23075129791056 430.0262637754321 "></path><path d="M446.95930375375406 378.575629843583C449.9871270308399 391.81576904143583 446.1875139017514 411.3759858379701 438.4230749175247 422.5197054609686C430.658635933298 433.6634250839671 427.41645508591387 428.50738878971185 409.6899966294659 432.0654840339757C391.96353817301787 435.6235792782395 360.2392611180791 448.8412643235836 353.33607432657436 439.5985626334349C346.43288753506965 430.3558609432862 368.1115045523635 403.6880054458164 376.5547000302434 387.70051592126197C384.9978955081233 371.71302639670756 384.00199112930005 368.8447542926543 393.86341262039787 362.8586129155737C403.7248341114957 356.8724715384931 412.8278792013971 355.6926587846066 423.88952318751296 358.9670373112752C434.9511671736289 362.2414158379438 443.9314804766683 365.33549064573015 446.95930375375406 378.575629843583C449.9871270308399 391.81576904143583 446.1875139017514 411.3759858379701 438.4230749175247 422.5197054609686 "></path><path d="M431.3061872437137 385.71708147612566C433.3247360951042 394.5438409413609 430.79166067571185 407.58398547238374 425.6153680195607 415.01313188771604C420.43907536340964 422.4422783030484 418.2776214651535 419.0049207735449 406.4599824941882 421.37698426972077C394.64234352322285 423.74904776589665 373.492825486597 432.560837796126 368.8907009589272 426.3990366693602C364.2885764312574 420.2372355425944 378.74098777611994 402.4586652109479 384.36978476137324 391.80033886124494C389.9985817466265 381.142012511542 389.3346454940776 379.22983110883985 395.90892648814287 375.2390701907861C402.48320748220806 371.24830927273234 408.551904208809 370.46176743680803 415.92633353288625 372.6446864545871C423.3007628569635 374.8276054723662 429.2876383923231 376.89032201089043 431.3061872437137 385.71708147612566C433.3247360951042 394.5438409413609 430.79166067571185 407.58398547238374 425.6153680195607 415.01313188771604 "></path><path d="M415.65310125125137 392.85854836745733C416.6623756769466 397.27192810007494 415.3958379672505 403.7920003655864 412.8076916391749 407.5065735732526C410.21954531109935 411.22114678091873 409.1388183619713 409.502468016167 403.22999887648865 410.6884997642549C397.32117939100596 411.87453151234286 386.746420372693 416.28042652745756 384.4453581088581 413.19952596407467C382.14429584502324 410.11862540069177 389.3705015174545 401.22934023486846 392.18490001008115 395.90017706001703C394.9992985027078 390.57101388516554 394.66733037643337 389.6149231838144 397.95447087346594 387.6195427247876C401.24161137049856 385.62416226576073 404.275959733799 385.23089134779855 407.96317439583765 386.3223508566881C411.6503890578763 387.4138103655776 414.6438268255561 388.4451686348397 415.65310125125137 392.85854836745733C416.6623756769466 397.27192810007494 415.3958379672505 403.7920003655864 412.8076916391749 407.5065735732526 "></path></g></svg>